<?xml version="1.0" encoding="UTF-8" standalone="no"?><!DOCTYPE svg PUBLIC "-//W3C//DTD SVG 1.1//EN" "http://www.w3.org/Graphics/SVG/1.1/DTD/svg11.dtd"><svg width="100%" height="100%" viewBox="0 0 375 375" version="1.1" xmlns="http://www.w3.org/2000/svg" xmlns:xlink="http://www.w3.org/1999/xlink" xml:space="preserve" xmlns:serif="http://www.serif.com/" style="fill-rule:evenodd;clip-rule:evenodd;stroke-linejoin:round;stroke-miterlimit:2;"><path d="M0,41.667c0,-22.997 18.67,-41.667 41.667,-41.667l291.666,-0c22.997,-0 41.667,18.67 41.667,41.667l0,291.666c0,22.997 -18.67,41.667 -41.667,41.667l-291.666,-0c-22.997,-0 -41.667,-18.67 -41.667,-41.667l0,-291.666Z" style="fill:url(#_Linear1);"/><path d="M182.255,33.495c-4.798,2.187 -8.442,8.382 -8.017,13.605c0.182,1.7 -1.276,2.612 -49.499,30.792l-49.742,29.032l-2.672,-1.701c-5.588,-3.522 -12.147,-2.733 -16.52,2.065c-4.859,5.284 -4.981,12.269 -0.243,17.492c1.214,1.397 3.158,2.854 4.19,3.34l2.005,0.79l-0,116.914l-3.037,1.64c-9.05,4.981 -8.624,18.281 0.789,23.019c3.645,1.883 9.718,1.457 12.816,-0.911c1.214,-0.911 2.55,-1.519 2.976,-1.397c0.425,0.182 22.897,13.422 49.924,29.456l49.195,29.153l0.121,3.34c0.425,11.297 12.998,17.188 21.197,10.022c2.976,-2.612 4.616,-6.074 4.616,-9.839l0.06,-3.159l46.766,-27.269c25.691,-15.063 48.284,-28.242 50.228,-29.335l3.462,-1.944l2.672,1.518c5.345,3.037 12.269,1.701 16.277,-3.158c5.163,-6.255 3.401,-15.609 -3.583,-19.496l-3.037,-1.64l0,-116.246l2.126,-1.033c4.251,-2.004 7.592,-7.166 7.592,-11.782c-0,-5.466 -4.191,-10.932 -9.536,-12.512c-3.826,-1.093 -6.62,-0.789 -10.021,1.154c-1.822,0.972 -2.551,1.094 -3.644,0.608c-0.79,-0.365 -23.383,-13.423 -50.289,-28.971l-48.891,-28.242l-0.122,-3.218c-0.121,-4.009 -0.789,-5.831 -3.34,-8.686c-3.766,-4.312 -9.718,-5.709 -14.819,-3.401Zm121.469,94.868l2.187,1.276l-0,58.244c-0,54.965 -0.061,58.306 -1.033,58.67c-4.312,1.458 -7.47,6.256 -8.017,12.026l-0.364,3.583l-99.484,58.184l-2.915,-1.457l-2.915,-1.397l-0,-21.519l87.451,-52.825l-0.883,-103.132c13.726,-7.895 22.694,-12.868 23.119,-12.868c0.364,-0.06 1.7,0.486 2.854,1.215Zm-211.887,7.477c0.057,0.062 0,107.087 0,107.087l62.662,36.132l29.274,16.914l0,21.519l-5.345,2.672l-100.212,-57.941l-0.061,-3.219c0,-5.284 -2.733,-9.9 -6.984,-11.904l-2.126,-1.033l-0,-117.096l2.611,-1.458c1.397,-0.85 2.673,-1.518 2.855,-1.579c0.146,-0.049 17.223,9.792 17.326,9.906Zm67.399,31.029l28.303,16.641l28.181,-16.337c15.426,-9.05 48.675,-28.586 48.979,-28.586c0.243,-0 1.275,1.275 2.247,2.854c1.64,2.733 1.64,2.916 0.607,3.644c-0.607,0.486 -33.795,20.205 -48.918,28.951l-27.513,15.912l-0,94.126l-7.288,0l-0,-94.126l-28.242,-16.641c-15.548,-9.11 -52.617,-30.982 -52.617,-31.164c0,-0.364 3.219,-6.195 3.401,-6.195c0.122,0 37.312,21.75 52.86,30.921Zm45.712,105.485l-0.106,-78.987l23.18,-12.201c1.702,-0.896 4.153,-2.028 7.353,-3.396c3.2,-1.368 6.537,-2.215 10.011,-2.54c4.905,-0.525 9.386,0.875 13.444,4.198c4.058,3.323 6.095,10.599 6.11,21.826c0.003,1.977 -0.114,4.095 -0.349,6.355c-0.236,2.26 -0.658,4.659 -1.268,7.195c-1.761,7.652 -5.327,15.681 -10.697,24.086c-5.371,8.405 -13.537,15.492 -24.497,21.262l-23.181,12.202Zm-77.368,-57.891l0.233,-10.054l2.125,1.058c0.708,0.353 1.662,0.765 2.86,1.237c1.198,0.471 2.466,0.831 3.804,1.078c1.872,0.347 3.622,0.235 5.247,-0.336c1.625,-0.572 2.47,-2.223 2.533,-4.954c0.011,-0.496 -0.02,-1.077 -0.094,-1.742c-0.074,-0.664 -0.193,-1.331 -0.357,-1.998c-0.495,-1.837 -1.524,-3.815 -3.087,-5.933c-1.563,-2.118 -4.159,-4.081 -7.79,-5.889c-0.797,-0.397 -1.594,-0.774 -2.392,-1.129c-0.798,-0.356 -1.596,-0.691 -2.395,-1.005c-1.595,-0.711 -3.193,-1.319 -4.794,-1.823c-1.6,-0.505 -3.07,-0.881 -4.407,-1.129l0.365,-15.764c1.247,0.286 2.472,0.582 3.674,0.888c1.202,0.306 2.38,0.663 3.535,1.071c1.6,0.545 3.198,1.153 4.795,1.823c1.596,0.67 3.236,1.424 4.918,2.262c8.5,4.235 14.953,8.893 19.358,13.976c4.405,5.082 7.366,9.717 8.881,13.904c0.591,1.55 1.005,2.991 1.243,4.323c0.238,1.333 0.344,2.537 0.319,3.612c-0.094,4.055 -1.487,7.191 -4.181,9.407c-2.693,2.215 -6.179,2.885 -10.458,2.009c4.49,3.326 8.202,7.414 11.135,12.265c2.933,4.852 4.334,10.091 4.204,15.718l-0.194,2.541c-0.936,5.644 -4.341,9.536 -10.212,11.675c-5.871,2.14 -13.898,0.673 -24.08,-4.4c-1.417,-0.705 -2.899,-1.486 -4.447,-2.34c-1.547,-0.855 -3.071,-1.781 -4.57,-2.779c-1.944,-1.136 -3.864,-2.344 -5.76,-3.623c-1.896,-1.28 -3.724,-2.609 -5.484,-3.988l3.161,-14.623c3.613,2.553 6.587,4.642 8.923,6.266c2.336,1.624 4.478,2.921 6.426,3.892c4.604,2.293 8.173,2.879 10.707,1.755c2.533,-1.123 3.836,-3.216 3.907,-6.278c0.09,-3.889 -1.235,-7.605 -3.974,-11.146c-2.739,-3.541 -6.189,-6.348 -10.351,-8.421c-0.531,-0.265 -1.063,-0.509 -1.595,-0.732c-0.532,-0.223 -1.109,-0.448 -1.731,-0.674Zm93.825,-14.267l0.065,47.913l8.067,-4.246c1.022,-0.538 2.23,-1.253 3.625,-2.146c1.396,-0.892 2.842,-2.01 4.339,-3.351c2.721,-2.541 5.203,-6.043 7.445,-10.507c2.243,-4.463 3.359,-10.372 3.349,-17.725c-0.011,-7.748 -1.192,-12.645 -3.545,-14.69c-2.354,-2.045 -4.961,-2.828 -7.821,-2.351c-1.294,0.206 -2.605,0.6 -3.933,1.18c-1.328,0.58 -2.502,1.139 -3.523,1.676l-8.068,4.247Zm25.654,-115.805l49.742,29.031l-0,6.681l-20.78,12.039c-0.368,-0.368 -84.822,-52.639 -84.822,-52.639l-0.016,-21.349l2.551,-1.337c1.396,-0.728 2.793,-1.336 3.036,-1.336c0.304,-0.06 22.897,12.998 50.289,28.91Zm-63.286,-4.888c0,-0 -85.338,51.479 -85.15,51.59l-20.468,-12.022l0,-5.649l19.921,-11.418c10.932,-6.255 33.526,-19.253 50.228,-28.849l30.367,-17.491l2.551,1.214l2.551,1.276l0,21.349Z" style="fill:#fff;"/><defs><linearGradient id="_Linear1" x1="0" y1="0" x2="1" y2="0" gradientUnits="userSpaceOnUse" gradientTransform="matrix(-375,-375,-375,375,375,375)"><stop offset="0" style="stop-color:#fdc45e;stop-opacity:1"/><stop offset="0.3" style="stop-color:#f46838;stop-opacity:1"/><stop offset="0.6" style="stop-color:#b21b84;stop-opacity:1"/><stop offset="1" style="stop-color:#7823bc;stop-opacity:1"/></linearGradient></defs></svg>