<svg width="100%" height="100%" viewBox="0 0 625 625" version="1.1" xmlns="http://www.w3.org/2000/svg" xmlns:xlink="http://www.w3.org/1999/xlink" xml:space="preserve" xmlns:serif="http://www.serif.com/" style="fill-rule:evenodd;clip-rule:evenodd;stroke-linejoin:round;stroke-miterlimit:2;">
	<g>
		<path d="M125,-0c-68.989,-0 -125,56.011 -125,125l0,375c0,68.989 56.011,125 125,125l375,-0c68.989,-0 125,-56.011 125,-125l0,-375c0,-68.989 -56.011,-125 -125,-125l-375,-0Z" style="fill:url(#_Linear1);" />
		<path d="M188.704,320.518l0,-26.112l4.455,0c1.485,0 3.48,-0.161 5.986,-0.483c2.506,-0.323 5.151,-1.021 7.935,-2.096c3.898,-1.504 7.517,-4.03 10.858,-7.576c3.341,-3.546 5.012,-8.865 5.012,-15.957c-0,-1.29 -0.093,-2.74 -0.279,-4.352c-0.185,-1.612 -0.464,-3.17 -0.835,-4.675c-1.114,-4.083 -3.341,-7.844 -6.682,-11.283c-3.341,-3.438 -8.817,-5.158 -16.427,-5.158c-1.67,0 -3.341,0.054 -5.011,0.162c-1.671,0.107 -3.341,0.268 -5.012,0.483c-3.341,0.215 -6.682,0.699 -10.023,1.451c-3.341,0.752 -6.403,1.666 -9.188,2.74l0,-40.941c2.599,-0.86 5.151,-1.666 7.657,-2.418c2.506,-0.752 4.965,-1.343 7.378,-1.773c3.341,-0.645 6.682,-1.128 10.023,-1.451c3.341,-0.322 6.775,-0.483 10.302,-0.483c17.818,-0 31.414,3.707 40.788,11.122c9.373,7.414 15.731,15.527 19.072,24.339c1.299,3.223 2.227,6.393 2.784,9.51c0.557,3.116 0.835,6.071 0.835,8.865c-0,10.531 -2.738,20.363 -8.213,29.497c-5.476,9.134 -12.668,15.313 -21.578,18.536c9.466,2.794 17.355,8.543 23.666,17.247c6.311,8.704 9.466,20.364 9.466,34.978c0,1.074 -0.046,2.203 -0.139,3.385c-0.093,1.182 -0.139,2.31 -0.139,3.385c-1.671,15.688 -8.539,30.034 -20.603,43.036c-12.065,13.003 -28.77,19.504 -50.116,19.504c-2.97,-0 -6.079,-0.108 -9.327,-0.323c-3.248,-0.214 -6.45,-0.644 -9.605,-1.289c-4.084,-0.43 -8.121,-1.075 -12.111,-1.934c-3.991,-0.86 -7.843,-1.935 -11.555,-3.224l5.847,-41.586c7.61,1.934 13.875,3.492 18.793,4.674c4.919,1.182 9.42,1.773 13.504,1.773c9.651,0 17.076,-3.062 22.273,-9.187c5.197,-6.125 7.796,-13.164 7.796,-21.116c-0,-10.101 -2.924,-17.945 -8.77,-23.533c-5.847,-5.588 -13.132,-8.381 -21.856,-8.381c-1.114,-0 -2.228,0.053 -3.341,0.161c-1.114,0.107 -2.32,0.268 -3.62,0.483Z" style="fill:#fff;fill-rule:nonzero;" />
		<path d="M309.202,424l0,-223.404l60.864,-0c4.469,-0 10.904,0.447 19.305,1.341c8.402,0.895 17.16,3.467 26.277,7.716c12.87,5.814 24.622,16.436 35.258,31.867c10.636,15.43 15.953,39.023 15.953,70.778c0,5.59 -0.313,11.405 -0.938,17.443c-0.626,6.038 -1.743,12.187 -3.352,18.449c-4.647,19.008 -14.032,36.395 -28.153,52.161c-14.121,15.766 -35.571,23.649 -64.35,23.649l-60.864,-0Zm43.436,-179.461l0,135.518l21.182,-0c2.681,-0 5.854,-0.224 9.519,-0.671c3.664,-0.447 7.462,-1.454 11.395,-3.019c7.15,-3.131 13.674,-9.336 19.573,-18.617c5.899,-9.28 8.848,-24.319 8.848,-45.117c0,-21.915 -3.083,-37.513 -9.25,-46.794c-6.167,-9.28 -13.004,-15.374 -20.512,-18.281c-3.396,-1.342 -6.837,-2.181 -10.323,-2.516c-3.485,-0.336 -6.569,-0.503 -9.25,-0.503l-21.182,-0Z" style="fill:#fff;fill-rule:nonzero;" />
		<path d="M310.338,89.475l184.809,-0c0.201,-0 0.402,-0.006 0.603,-0.016c-0,-0 19.281,-1.136 30.821,13.174c5.2,6.448 8.577,15.958 8.577,29.683l-0,159.47c-0,6.272 5.092,11.364 11.363,11.364c6.272,-0 11.364,-5.092 11.364,-11.364l0,-159.47c0,-20.438 -5.869,-34.347 -13.613,-43.95c-17.212,-21.344 -44.965,-21.693 -49.176,-21.618c0.026,-0 -184.748,-0 -184.748,-0c-6.272,-0 -11.364,5.091 -11.364,11.363c0,6.272 5.092,11.364 11.364,11.364Z" style="fill:#fff;" />
		<path d="M315.15,533.987l-184.809,0c-0.201,0 -0.402,0.006 -0.603,0.016c-0,0 -19.282,1.136 -30.821,-13.174c-5.201,-6.448 -8.577,-15.958 -8.577,-29.683l-0,-159.47c-0,-6.272 -5.092,-11.363 -11.364,-11.363c-6.272,-0.001 -11.363,5.091 -11.363,11.363l-0,159.47c-0,20.438 5.868,34.347 13.612,43.95c17.212,21.344 44.965,21.693 49.177,21.618c-0.026,0.001 184.748,0.001 184.748,0.001c6.271,-0 11.363,-5.092 11.363,-11.364c0,-6.272 -5.092,-11.364 -11.363,-11.364Z" style="fill:#fff;" />
	</g>
	<defs>
		<linearGradient id="_Linear1" x1="0" y1="0" x2="1" y2="0" gradientUnits="userSpaceOnUse" gradientTransform="matrix(3.82702e-14,-625,625,3.82702e-14,312.5,625)">
			<stop offset="0" style="stop-color:#00efd1;stop-opacity:1" />
			<stop offset="1" style="stop-color:#00acea;stop-opacity:1" />
		</linearGradient>
	</defs>
</svg>
