<?xml version="1.0" encoding="UTF-8" standalone="no"?>
<!DOCTYPE svg PUBLIC "-//W3C//DTD SVG 1.1//EN" "http://www.w3.org/Graphics/SVG/1.1/DTD/svg11.dtd">
<svg width="100%" height="100%" viewBox="0 0 150 176" version="1.1" xmlns="http://www.w3.org/2000/svg" xmlns:xlink="http://www.w3.org/1999/xlink" xml:space="preserve" xmlns:serif="http://www.serif.com/" style="fill-rule:evenodd;clip-rule:evenodd;stroke-linejoin:round;stroke-miterlimit:2;">
	<path d="M101.261,28.618c6.237,-7.578 10.436,-18.123 9.29,-28.618c-8.99,0.362 -19.864,6.01 -26.316,13.583c-5.779,6.705 -10.843,17.441 -9.477,27.727c10.024,0.779 20.262,-5.11 26.503,-12.692Zm48.739,100.043c-0.208,0.628 -3.869,12.717 -12.751,25.199c-7.677,10.796 -15.645,21.55 -28.197,21.77c-12.336,0.221 -16.301,-7.036 -30.405,-7.036c-14.099,-0 -18.503,6.816 -30.183,7.257c-12.113,0.439 -21.342,-11.672 -29.084,-22.427c-15.82,-21.999 -27.911,-62.161 -11.675,-89.273c8.065,-13.463 22.473,-21.99 38.119,-22.21c11.897,-0.215 23.129,7.702 30.399,7.702c7.272,-0 20.918,-9.522 35.266,-8.123c6.006,0.238 22.866,2.333 33.696,17.575c-0.873,0.518 -20.119,11.295 -19.911,33.713c0.259,26.818 24.458,35.738 24.726,35.853Z" />
</svg>
