<?xml version="1.0" encoding="UTF-8" standalone="no"?><!DOCTYPE svg PUBLIC "-//W3C//DTD SVG 1.1//EN" "http://www.w3.org/Graphics/SVG/1.1/DTD/svg11.dtd"><svg width="100%" height="100%" viewBox="0 0 204 204" version="1.1" xmlns="http://www.w3.org/2000/svg" xmlns:xlink="http://www.w3.org/1999/xlink" xml:space="preserve" xmlns:serif="http://www.serif.com/" style="fill-rule:evenodd;clip-rule:evenodd;stroke-linejoin:round;stroke-miterlimit:2;"><g><path d="M41.667,0c-22.997,0 -41.667,18.67 -41.667,41.667l0,119.791c0,22.997 18.67,41.667 41.667,41.667l119.791,0c22.997,0 41.667,-18.67 41.667,-41.667l0,-119.791c0,-22.997 -18.67,-41.667 -41.667,-41.667l-119.791,0Z" style="fill:url(#_Linear1);"/><g><path d="M169.99,17.546l-93.114,-0l47.879,29.749c4.466,0.933 7.822,4.893 7.822,9.637l-0,96.809l37.413,0c2.719,0 4.923,-2.204 4.923,-4.923l0,-126.35c0,-2.718 -2.204,-4.922 -4.923,-4.922Z" style="fill:#fff;"/><path d="M70.548,25.206l0,21.88l35.216,0l-35.216,-21.88Z" style="fill:#fff;"/><path d="M71.891,95.159l-0.138,2.023c1.053,-0.399 2.574,-1.181 3.718,-1.112c1.139,-0.071 2.674,0.715 3.719,1.112l-0.138,-2.023c-0.188,-2.182 1.131,-3.526 2.437,-5.05l-1.967,-0.494c-2.142,-0.502 -2.999,-2.159 -4.051,-3.878l-1.077,1.718c-1.139,1.882 -2.98,2.184 -4.94,2.653c1.307,1.526 2.624,2.869 2.437,5.051Z" style="fill:#fff;"/><path d="M117.808,56.932l-84.673,0c-2.719,0 -4.923,2.204 -4.923,4.923l-0,118.802c-0,2.718 2.204,4.922 4.923,4.922l84.673,0c2.719,0 4.923,-2.204 4.923,-4.922l-0,-118.802c-0,-2.719 -2.204,-4.923 -4.923,-4.923Zm-61.85,28.791c0.524,-1.612 1.84,-2.841 3.483,-3.253l7.663,-1.923l4.196,-6.693c0.901,-1.437 2.477,-2.309 4.171,-2.309c1.695,0 3.271,0.872 4.171,2.309l4.197,6.693l7.662,1.923c1.644,0.412 2.96,1.641 3.484,3.253c0.523,1.612 0.181,3.38 -0.906,4.68l-5.069,6.06l0.539,7.882c0.116,1.69 -0.646,3.322 -2.017,4.318c-1.372,0.996 -3.159,1.218 -4.731,0.585l-7.329,-2.949l-7.33,2.949c-1.564,0.63 -3.356,0.415 -4.731,-0.585c-1.371,-0.996 -2.133,-2.628 -2.017,-4.319l0.54,-7.881l-5.069,-6.059c-1.089,-1.301 -1.431,-3.069 -0.907,-4.681Zm47.081,82.79l-55.136,0c-6.507,-0.234 -6.535,-9.6 0,-9.845l55.136,-0c6.508,0.234 6.536,9.6 0,9.845Zm0,-19.691l-55.136,0c-6.507,-0.234 -6.535,-9.6 0,-9.846l55.136,0c6.508,0.234 6.536,9.6 0,9.846Zm0,-19.691l-55.136,-0c-6.507,-0.234 -6.535,-9.601 0,-9.846l55.136,-0c6.508,0.234 6.536,9.6 0,9.846Z" style="fill:#fff;"/></g></g><defs><linearGradient id="_Linear1" x1="0" y1="0" x2="1" y2="0" gradientUnits="userSpaceOnUse" gradientTransform="matrix(1.24378e-14,-203.125,203.125,1.24378e-14,101.562,203.125)"><stop offset="0" style="stop-color:#ffd92d;stop-opacity:1"/><stop offset="1" style="stop-color:#2bd663;stop-opacity:1"/></linearGradient></defs></svg>