<?xml version="1.0" encoding="UTF-8" standalone="no"?><!DOCTYPE svg PUBLIC "-//W3C//DTD SVG 1.1//EN" "http://www.w3.org/Graphics/SVG/1.1/DTD/svg11.dtd"><svg width="100%" height="100%" viewBox="0 0 188 188" version="1.1" xmlns="http://www.w3.org/2000/svg" xmlns:xlink="http://www.w3.org/1999/xlink" xml:space="preserve" xmlns:serif="http://www.serif.com/" style="fill-rule:evenodd;clip-rule:evenodd;stroke-linejoin:round;stroke-miterlimit:2;"><path d="M146.9,71.95l-68.721,-0l0,-31.35l65.606,-0c1.721,-0 3.115,1.394 3.115,3.115l-0,28.235Zm-0,71.835c-0,1.721 -1.394,3.117 -3.115,3.117l-28.235,0l-0,-68.723l31.35,0l-0,65.606Zm-37.579,-34.464l-31.142,-0l0,-31.144l31.142,0l-0,31.144Zm-0,37.581l-65.606,0c-1.721,0 -3.115,-1.396 -3.115,-3.117l-0,-28.235l68.721,-0l-0,31.352Zm-68.721,-103.187c-0,-1.721 1.394,-3.115 3.115,-3.115l28.233,-0l-0,68.721l-31.348,-0l-0,-65.606Zm53.15,-43.715c-51.777,-0 -93.75,41.973 -93.75,93.75c-0,51.777 41.973,93.75 93.75,93.75c51.777,-0 93.75,-41.973 93.75,-93.75c-0,-51.777 -41.973,-93.75 -93.75,-93.75" style="fill:#8dcc33;fill-rule:nonzero;"/></svg>