<svg width="100%" height="100%" viewBox="0 0 242 187">
	<path fill="#ee721a" d="M5.661 124.611s33.284-3.279 48.523-4.662c25.344-2.298 35.656 9.37 35.656 9.37l-6.233-37.772 24.842-9.223L76.628 41.03 5.661 124.61z" />
	<path fill="#808081" d="M106.714 166.757h134.568L113.146.015l-29.715 34.53 40.073 51.43L95.259 96.4l11.455 70.357z" />
	<path fill="#07286C" d="M3.279 144.94l-3.28-1.891c2.212-4.086 4.576-6.885 7.245-8.398 2.67-1.438 5.567-2.195 8.77-2.195 3.127 0 5.644.833 7.55 2.422 1.907 1.664 2.899 3.707 2.899 6.128 0 2.497-.916 4.843-2.67 7.037a30.026 30.026 0 01-5.948 5.674v.606c2.364-.227 4.5 0 6.406.832 1.907.757 3.432 2.043 4.652 3.859 1.144 1.816 1.678 4.01 1.678 6.507 0 2.572-.687 5.296-2.136 8.096s-4.041 5.523-7.778 8.095c-2.517 1.59-5.491 2.951-8.923 4.086-3.508 1.135-7.398 1.362-11.745.833l.915-3.935c6.483-.227 11.059-1.891 13.804-5.07 2.822-3.101 4.195-6.506 4.195-10.138 0-2.421-.61-4.313-1.83-5.675-1.221-1.362-2.746-2.043-4.73-2.194-1.83-.076-3.812.605-5.719 1.892l-1.754-3.103c3.737-2.42 6.864-4.842 9.304-7.263 2.364-2.346 3.585-4.994 3.585-7.793 0-1.135-.382-2.346-1.068-3.48-.763-1.06-2.135-1.665-4.195-1.665-3.584 0-6.71 2.27-9.227 6.734zM35.918 133.289h22.574c12.66 0 21.048 2.95 25.167 8.852 4.118 5.902 6.177 11.955 6.177 18.159 0 8.323-2.974 14.906-9 19.824-5.109 4.085-11.973 6.128-20.59 6.128H35.918v-2.724c1.754-.605 2.821-1.21 3.203-1.891.305-.605.534-1.665.534-3.102v-37.529c0-1.437-.23-2.497-.534-3.253-.382-.681-1.45-1.21-3.203-1.74v-2.724zm15.176 48.953h5.949c13.422 0 20.133-7.415 20.133-22.169 0-8.852-2.135-14.905-6.406-18.083-4.27-3.102-9.152-4.691-14.719-4.691h-4.957v44.943zM116.631 183.616l-.16 2.258c-.919.22-1.838.32-2.737.32-2.218 0-3.917-.62-5.096-1.838-1.159-1.24-1.738-2.738-1.738-4.496 0-1.839.62-3.417 1.858-4.776 1.239-1.36 2.937-2.038 5.096-2.038.779 0 1.538.1 2.258.28l-.36 2.257c-.76-.24-1.499-.38-2.198-.38-1.319 0-2.298.42-2.938 1.26-.659.839-.979 1.858-.979 3.057 0 1.219.38 2.278 1.16 3.177.759.9 1.838 1.339 3.216 1.339.8 0 1.679-.14 2.618-.42zM131.148 179.34c0 1.998-.6 3.657-1.838 4.976-1.219 1.318-2.718 1.978-4.536 1.978-1.718 0-3.157-.62-4.296-1.819-1.16-1.199-1.739-2.737-1.739-4.596 0-1.998.6-3.656 1.819-4.975 1.239-1.319 2.737-1.958 4.536-1.958 1.718 0 3.157.6 4.316 1.798 1.159 1.199 1.738 2.738 1.738 4.596zm-2.697.3c0-1.36-.34-2.478-1.04-3.317-.699-.84-1.558-1.26-2.577-1.26-.94 0-1.759.42-2.418 1.28-.66.839-1 1.918-1 3.217 0 1.359.36 2.458 1.06 3.297.7.86 1.559 1.279 2.578 1.279.939 0 1.738-.42 2.418-1.28.659-.858.979-1.937.979-3.216zM144.387 185.934h-2.897c-.74-2.298-1.319-3.717-1.719-4.256-.42-.54-1.059-.82-1.958-.82-.38 0-.74 0-1.079.02 0 1.66.02 3.358.08 5.056h-2.718c.1-1.958.14-4.176.14-6.654 0-2.358-.04-4.376-.14-6.055h1.699c.2 0 .6 0 1.219-.02.62-.02 1.199-.04 1.718-.04 2.998 0 4.476 1.02 4.476 3.078 0 1.618-.839 2.737-2.557 3.377v.14c.659.2 1.239.699 1.738 1.538.5.84 1.16 2.398 1.998 4.636zm-3.656-8.972c0-1.299-.84-1.938-2.498-1.938-.62 0-1.16.04-1.619.12.06 1.019.1 2.338.1 3.956.36 0 .66.02.92.02 2.057 0 3.097-.72 3.097-2.158zM156.07 176.562c0 1.559-.579 2.698-1.718 3.437-1.159.74-2.578 1.12-4.256 1.12-.3 0-.52-.02-.66-.02 0 1.218.04 2.837.12 4.835H146.8c.1-1.878.14-4.096.14-6.654 0-2.338-.04-4.356-.14-6.055h1.698c.24 0 .7 0 1.399-.02.68-.02 1.259-.04 1.758-.04 1.24 0 2.298.28 3.138.84.859.56 1.279 1.418 1.279 2.557zm-2.517.54c0-1.399-.92-2.098-2.758-2.098-.48 0-.959.06-1.478.14.08 1.239.12 2.637.12 4.176.16.02.34.02.559.02 2.378 0 3.557-.74 3.557-2.238zM170.471 179.34c0 1.998-.6 3.657-1.838 4.976-1.22 1.318-2.718 1.978-4.536 1.978-1.719 0-3.158-.62-4.297-1.819-1.159-1.199-1.738-2.737-1.738-4.596 0-1.998.6-3.656 1.818-4.975 1.24-1.319 2.738-1.958 4.536-1.958 1.719 0 3.158.6 4.316 1.798 1.16 1.199 1.739 2.738 1.739 4.596zm-2.698.3c0-1.36-.34-2.478-1.039-3.317-.7-.84-1.558-1.26-2.577-1.26-.94 0-1.759.42-2.418 1.28-.66.839-1 1.918-1 3.217 0 1.359.36 2.458 1.06 3.297.699.86 1.558 1.279 2.577 1.279.94 0 1.739-.42 2.418-1.28.66-.858.98-1.937.98-3.216zM183.716 185.934h-2.897c-.74-2.298-1.32-3.717-1.719-4.256-.42-.54-1.059-.82-1.958-.82-.38 0-.74 0-1.08.02 0 1.66.02 3.358.08 5.056h-2.717c.1-1.958.14-4.176.14-6.654 0-2.358-.04-4.376-.14-6.055h1.699c.2 0 .6 0 1.219-.02.62-.02 1.199-.04 1.718-.04 2.998 0 4.476 1.02 4.476 3.078 0 1.618-.839 2.737-2.558 3.377v.14c.66.2 1.24.699 1.739 1.538.5.84 1.159 2.398 1.998 4.636zm-3.657-8.972c0-1.299-.839-1.938-2.497-1.938-.62 0-1.16.04-1.619.12.06 1.019.1 2.338.1 3.956.36 0 .66.02.92.02 2.057 0 3.096-.72 3.096-2.158zM197.218 185.934h-3.137c0-.42-.3-1.638-.88-3.657h-4.516c-.6 1.979-.919 3.198-.919 3.657h-2.937c0-.26.76-2.338 2.278-6.254 1.518-3.897 2.278-6.055 2.278-6.455h3.697c0 .38.679 2.498 2.058 6.375 1.378 3.876 2.078 5.974 2.078 6.334zm-4.516-5.515c-1.12-3.357-1.679-5.175-1.679-5.435h-.14c0 .24-.579 2.058-1.738 5.435h3.557zM207.93 173.225l-.06 2.099c-1.299-.1-2.538-.14-3.677-.14-.02 1.219-.02 2.597-.02 4.096 0 2.358.02 4.576.1 6.654h-2.737c.1-2.078.14-4.276.14-6.654 0-1.479-.02-2.837-.04-4.096-.92 0-2.179.06-3.777.16l.08-2.119h9.991zM213.1 185.934h-2.758c.1-2.018.14-4.236.14-6.654 0-2.358-.04-4.376-.14-6.055h2.758c-.08 1.639-.12 3.657-.12 6.055 0 2.458.04 4.676.12 6.654zM228.485 179.34c0 1.998-.6 3.657-1.838 4.976-1.22 1.318-2.718 1.978-4.536 1.978-1.719 0-3.158-.62-4.297-1.819-1.159-1.199-1.738-2.737-1.738-4.596 0-1.998.6-3.656 1.818-4.975 1.24-1.319 2.738-1.958 4.536-1.958 1.719 0 3.158.6 4.317 1.798 1.159 1.199 1.738 2.738 1.738 4.596zm-2.698.3c0-1.36-.34-2.478-1.039-3.317-.7-.84-1.558-1.26-2.577-1.26-.94 0-1.759.42-2.418 1.28-.66.839-1 1.918-1 3.217 0 1.359.36 2.458 1.06 3.297.699.86 1.558 1.279 2.577 1.279.94 0 1.739-.42 2.418-1.28.66-.858.98-1.937.98-3.216zM241.91 185.934h-2.398c0-.26-.899-1.678-2.697-4.216-1.859-2.698-2.938-4.536-3.198-5.515h-.16c.18 1.418.26 2.697.26 3.856 0 1.599.04 3.557.12 5.875h-2.398c.1-2.018.16-4.236.16-6.654 0-2.358-.06-4.376-.16-6.055h2.898c0 .36.819 1.719 2.418 4.137 1.718 2.557 2.697 4.276 2.937 5.195h.16c-.16-1.459-.24-2.757-.24-3.896 0-1.759-.04-3.577-.14-5.436h2.438c-.08 1.619-.14 3.637-.14 6.055 0 2.458.06 4.676.14 6.654z" />
	<path fill="#fff" d="M105.832 159.278l2.86-.25c.135 1.146.45 2.086.945 2.82.495.735 1.263 1.329 2.304 1.781 1.042.454 2.214.68 3.516.68 1.156 0 2.177-.17 3.063-.515.885-.344 1.544-.815 1.976-1.414.432-.6.649-1.253.649-1.961 0-.72-.209-1.347-.625-1.884-.417-.535-1.105-.986-2.063-1.351-.615-.239-1.974-.611-4.078-1.116-2.104-.506-3.578-.983-4.422-1.43-1.094-.574-1.909-1.284-2.445-2.134-.537-.848-.805-1.8-.805-2.85 0-1.157.328-2.238.984-3.244.657-1.004 1.615-1.768 2.875-2.288 1.26-.52 2.662-.781 4.204-.781 1.697 0 3.195.273 4.492.82 1.297.546 2.294 1.352 2.992 2.414s1.073 2.266 1.125 3.61l-2.906.218c-.157-1.448-.685-2.54-1.586-3.281-.901-.74-2.232-1.11-3.992-1.11-1.834 0-3.17.337-4.008 1.008-.839.672-1.258 1.482-1.258 2.43 0 .823.297 1.5.89 2.031.584.531 2.107 1.076 4.57 1.633 2.464.558 4.154 1.045 5.071 1.461 1.333.615 2.318 1.394 2.953 2.337.636.941.953 2.027.953 3.257 0 1.218-.348 2.367-1.046 3.445-.698 1.078-1.7 1.916-3.008 2.516-1.308.6-2.779.899-4.414.899-2.073 0-3.81-.303-5.211-.907-1.401-.604-2.5-1.514-3.297-2.727-.797-1.214-1.216-2.585-1.258-4.117zM130.353 166.637v-22.906h4.563l5.422 16.219c.5 1.51.864 2.641 1.093 3.39.26-.833.667-2.056 1.22-3.67l5.484-15.94h4.078v22.907h-2.922v-19.172l-6.657 19.172H139.9l-6.625-19.499v19.5h-2.922zM156.828 166.637l8.797-22.906h3.265l9.375 22.906h-3.453l-2.672-6.937h-9.578l-2.516 6.937h-3.218zm6.609-9.405h7.766l-2.391-6.344c-.73-1.927-1.27-3.511-1.625-4.75a29.223 29.223 0 01-1.234 4.375l-2.516 6.719zM182.973 166.637v-22.906h10.157c2.042 0 3.594.206 4.656.618 1.063.41 1.912 1.137 2.547 2.18.636 1.04.954 2.192.954 3.453 0 1.624-.526 2.994-1.579 4.109-1.052 1.114-2.676 1.823-4.874 2.124.8.386 1.41.766 1.827 1.141.886.813 1.725 1.829 2.516 3.048l3.985 6.233h-3.814l-3.03-4.765c-.886-1.375-1.614-2.427-2.187-3.156-.575-.73-1.087-1.24-1.54-1.532a4.555 4.555 0 00-1.383-.609c-.343-.073-.906-.11-1.687-.11h-3.515v10.172h-3.033zm3.033-12.796h6.515c1.385 0 2.47-.143 3.25-.43.781-.286 1.374-.745 1.78-1.375a3.72 3.72 0 00.61-2.054c0-1.084-.393-1.974-1.179-2.673-.786-.697-2.028-1.046-3.727-1.046h-7.25v7.578zM213.527 166.637v-20.202h-7.547v-2.704h18.155v2.704h-7.577v20.202h-3.03z" />
</svg>
