<?xml version="1.0" encoding="UTF-8" standalone="no"?><!DOCTYPE svg PUBLIC "-//W3C//DTD SVG 1.1//EN" "http://www.w3.org/Graphics/SVG/1.1/DTD/svg11.dtd"><svg width="100%" height="100%" viewBox="0 0 1043 1025" version="1.1" xmlns="http://www.w3.org/2000/svg" xmlns:xlink="http://www.w3.org/1999/xlink" xml:space="preserve" xmlns:serif="http://www.serif.com/" style="fill-rule:evenodd;clip-rule:evenodd;stroke-linejoin:round;stroke-miterlimit:2;"><g id="Layer-1" serif:id="Layer 1"></g><rect id="Монтажная-область1" serif:id="Монтажная область1" x="0" y="0" width="1042.76" height="1024.46" style="fill:none;"/><path id="path300" d="M215.91,821.195c-4.866,-2.834 -5.469,-8.994 -5.469,-55.944c0,-50.427 0.284,-52.849 6.4,-54.79c13.26,-4.209 15.475,2.564 15.475,47.305l0,41.805l41.563,-0c42.813,-0 49.062,1.657 49.062,13.015c0,3.033 -2.72,6.97 -6.044,8.75c-7.811,4.18 -93.774,4.061 -100.987,-0.141l0,0Zm509.375,0c-3.008,-1.752 -5.469,-5.646 -5.469,-8.655c0,-11.308 6.287,-12.969 49.063,-12.969l41.563,-0l-0,-41.805c-0,-44.741 2.215,-51.514 15.474,-47.305c6.118,1.941 6.4,4.363 6.4,54.835c0,49.008 -0.434,53.037 -6.044,56.04c-7.811,4.18 -93.774,4.061 -100.987,-0.141l0,0Zm-225.781,-65.93c-8.594,-5.28 -54.487,-31.972 -101.984,-59.317l-86.36,-49.717l-29.64,17.353c-28.952,16.95 -37.35,18.829 -41.051,9.182c-3.287,-8.563 2.173,-14.107 29.712,-30.17l27.76,-16.192l0,-36.257c0,-40.003 2.788,-48.179 15.801,-46.342c7.492,1.057 7.654,1.714 8.523,34.562l0.886,33.484l10.051,-6.128c11.975,-7.302 18.884,-7.767 23.99,-1.615c5.472,6.593 1.596,14.949 -9.985,21.524c-9.834,5.584 -9.946,5.881 -3.914,10.3c8.865,6.496 162.683,94.889 165.121,94.889c1.115,-0 2.027,-16.919 2.027,-37.598c0,-27.424 -1.057,-37.888 -3.906,-38.669c-2.148,-0.59 -11.64,-2.843 -21.094,-5.008c-45.623,-10.451 -83.817,-45.805 -100.413,-92.948c-8.569,-24.341 -8.761,-64.473 -0.426,-89.01l6.087,-17.92l-32.226,-18.799c-17.724,-10.339 -32.916,-18.798 -33.76,-18.798c-0.845,-0 -1.938,13.561 -2.43,30.137c-0.746,25.143 -1.833,30.71 -6.559,33.593c-4.609,2.813 -6.791,2.084 -11.718,-3.92c-5.259,-6.408 -6.048,-12.365 -6.007,-45.313c0.024,-20.864 1.1,-39.588 2.384,-41.608c1.285,-2.02 48.724,-30.52 105.421,-63.334l103.085,-59.662l1.562,-30.416l1.563,-30.415l18.75,0l1.562,30.415l1.563,30.416l103.085,59.662c56.696,32.814 104.136,61.314 105.421,63.334c1.285,2.02 2.357,19.928 2.384,39.795c0.047,39.869 -2.735,48.044 -15.753,46.206c-7.394,-1.044 -7.666,-1.996 -8.536,-29.984c-0.493,-15.899 -1.587,-28.906 -2.429,-28.906c-0.842,-0 -16.151,8.528 -34.02,18.952l-32.489,18.952l6.225,17.767c8.281,23.636 8.392,61.06 0.257,86.842c-14.904,47.237 -54.224,84.314 -100.707,94.962c-9.453,2.165 -18.946,4.418 -21.094,5.008c-2.852,0.781 -3.906,11.311 -3.906,39.003c-0,33.016 0.629,37.691 4.855,36.069c3.995,-1.533 166.525,-94.812 169.506,-97.283c0.508,-0.42 -6.965,-5.217 -16.606,-10.658c-13.72,-7.743 -17.315,-11.321 -16.548,-16.466c1.9,-12.738 10.504,-14.274 27.243,-4.865c8.406,4.726 16.078,8.592 17.049,8.592c0.971,-0 2.17,-13.008 2.665,-28.907c0.87,-27.987 1.141,-28.94 8.536,-29.984c12.71,-1.794 15.786,6.525 15.927,43.082l0.126,32.996l33.467,18.75c27.98,15.676 33.467,19.975 33.467,26.222c-0,16.001 -8.048,14.997 -45.041,-5.618l-34.931,-19.467l-102.19,58.806c-56.204,32.344 -105.007,59.084 -108.451,59.423c-3.444,0.339 -13.293,-3.704 -21.887,-8.984l-0,0Zm75.391,-138.396c34.57,-17.085 55.761,-45.314 64.015,-85.277c7.41,-35.875 -5.801,-76.953 -33.732,-104.883c-68.957,-68.957 -183.511,-31.342 -201.654,66.215c-8.702,46.794 16.756,98.948 59.392,121.673c24.773,13.204 38.35,16.234 66.054,14.744c18.791,-1.011 27.544,-3.387 45.925,-12.472Zm-125.032,-55.074c-16.629,-13.081 -23.038,-37.191 -11.523,-43.353c8.623,-4.615 15.157,-1.022 17.495,9.621c4.136,18.831 26.65,23.441 32.994,6.756c5.096,-13.404 -3.469,-22.748 -20.852,-22.748c-25.865,-0 -33.713,-10.683 -18.411,-25.059l7.875,-7.398l-10.18,-3.303c-10.952,-3.553 -14.64,-11.764 -8.57,-19.078c3.879,-4.674 43.933,-6.622 54.307,-2.641c7.198,2.762 6.056,16.801 -2.088,25.675c-5.368,5.849 -6.016,8.021 -2.739,9.184c2.361,0.837 8.554,5.33 13.762,9.984c7.909,7.067 9.711,11.376 10.937,26.155c1.431,17.252 1.154,18.009 -11.05,30.213c-11.258,11.257 -14.086,12.518 -28.09,12.518c-11.058,-0 -17.975,-1.892 -23.867,-6.526Zm81.412,4.442c-1.146,-1.145 -2.084,-25.583 -2.084,-54.305c0,-61.176 -0.047,-61.083 26.926,-58.299c58.572,6.045 74.631,82.135 22.904,108.525c-11.784,6.011 -43.136,8.69 -47.746,4.079Zm35.382,-24.461c24.971,-12.913 25.563,-48.039 1.022,-60.59c-15.479,-7.915 -16.612,-5.951 -16.612,28.801c-0,28.64 1.15,36.459 5.363,36.459c0.658,-0 5.261,-2.102 10.227,-4.67l-0,-0Zm-148.286,-129.884c28.266,-28.806 63.173,-43.571 103.008,-43.571c40.079,-0 71.423,13.178 101.939,42.858l17.565,17.083l31.654,-18.137c17.41,-9.975 31.654,-18.976 31.654,-20.002c0,-1.57 -161.274,-96.321 -169.199,-99.407c-1.472,-0.572 -2.676,8.747 -2.676,20.712c0,24.001 -5.086,32.991 -15.105,26.696c-3.913,-2.457 -5.436,-8.875 -6.13,-25.813c-0.507,-12.398 -2.062,-22.094 -3.456,-21.548c-7.917,3.107 -169.059,97.811 -169.059,99.357c0,1.765 59.072,37.055 62.618,37.408c0.923,0.095 8.658,-6.944 17.187,-15.636Zm-202.542,109.133c-6.844,-3.83 -7.033,-17.894 -0.275,-20.487c12.087,-4.639 22.704,14.383 11.403,20.431c-3.702,1.982 -7.651,2.002 -11.127,0.059l-0.001,-0.003Zm43.142,-0.688c-6.351,-4.644 -5.429,-14.016 1.827,-18.585c7.486,-4.713 15.268,-0.355 15.268,8.548c0,10.015 -9.499,15.592 -17.095,10.037Zm45.22,-2.016c-5.085,-5.085 -5.716,-7.658 -3.086,-12.572c3.708,-6.929 12.416,-8.098 18.086,-2.428c5.671,5.67 4.501,14.378 -2.428,18.086c-4.914,2.63 -7.486,1.999 -12.572,-3.086Zm421.014,2.705c-10.125,-5.667 -4.513,-21.455 7.627,-21.455c6.149,-0 11.905,8.803 9.727,14.879c-2.31,6.447 -11.418,9.897 -17.354,6.576Zm42.994,-1.644c-5.608,-5.609 -5.907,-11.037 -0.882,-16.061c8.737,-8.738 23.534,-0.246 19.842,11.387c-2.518,7.933 -13.094,10.54 -18.96,4.674l0,-0Zm47.022,0.955c-6.351,-4.643 -5.429,-14.015 1.827,-18.584c7.486,-4.714 15.268,-0.356 15.268,8.548c0,10.014 -9.499,15.591 -17.095,10.036Zm-603.315,-212.083c-0.894,-2.329 -1.238,-27.384 -0.763,-55.678l0.862,-51.442l51.147,-0.86c54.161,-0.911 60.945,0.589 59.16,13.087c-0.882,6.172 -3.287,6.607 -44.682,8.086l-43.75,1.562l-1.563,43.75l-1.562,43.75l-8.612,0.991c-5.131,0.591 -9.268,-0.721 -10.237,-3.245l-0,-0.001Zm600.117,0.12c-0.829,-2.264 -1.876,-22.397 -2.326,-44.741l-0.818,-40.625l-43.75,-1.562c-41.395,-1.479 -43.801,-1.914 -44.682,-8.086c-1.786,-12.498 4.998,-13.998 59.16,-13.087l51.147,0.86l-0,109.374l-8.612,0.991c-5.049,0.582 -9.235,-0.712 -10.119,-3.125l0,0.001Z" style="fill-rule:nonzero;"/></svg>