<?xml version="1.0" encoding="UTF-8" standalone="no"?><!DOCTYPE svg PUBLIC "-//W3C//DTD SVG 1.1//EN" "http://www.w3.org/Graphics/SVG/1.1/DTD/svg11.dtd"><svg width="100%" height="100%" viewBox="0 0 204 204" version="1.1" xmlns="http://www.w3.org/2000/svg" xmlns:xlink="http://www.w3.org/1999/xlink" xml:space="preserve" xmlns:serif="http://www.serif.com/" style="fill-rule:evenodd;clip-rule:evenodd;stroke-linejoin:round;stroke-miterlimit:2;"><path d="M110.877,103.339c-0,-3.135 2.149,-5.679 4.803,-5.679c2.654,0 4.805,2.544 4.805,5.679c-0,3.135 -2.151,5.676 -4.805,5.676c-2.654,-0 -4.803,-2.541 -4.803,-5.676m35.664,-64.355l0,129.066c0,2.157 1.752,3.911 3.909,3.911c2.16,0 3.911,-1.754 3.911,-3.911l0,-132.977c0,-2.158 -1.751,-3.909 -3.911,-3.909l-22.107,-0l0,-7.182l-79.579,7.834l-0,132.93l79.579,18.351l0,-144.113l18.198,0Zm-44.979,-38.984c56.092,-0 101.563,45.471 101.563,101.563c-0,56.089 -45.471,101.562 -101.563,101.562c-56.089,0 -101.562,-45.473 -101.562,-101.562c-0,-56.092 45.473,-101.563 101.562,-101.563" style="fill:#808080;fill-rule:nonzero;"/></svg>