<?xml version="1.0" encoding="UTF-8" standalone="no"?><!DOCTYPE svg PUBLIC "-//W3C//DTD SVG 1.1//EN" "http://www.w3.org/Graphics/SVG/1.1/DTD/svg11.dtd"><svg width="100%" height="100%" viewBox="0 0 188 188" version="1.1" xmlns="http://www.w3.org/2000/svg" xmlns:xlink="http://www.w3.org/1999/xlink" xml:space="preserve" xmlns:serif="http://www.serif.com/" style="fill-rule:evenodd;clip-rule:evenodd;stroke-linejoin:round;stroke-miterlimit:2;"><path d="M102.348,95.39c-0,-2.894 1.983,-5.242 4.433,-5.242c2.45,-0 4.436,2.348 4.436,5.242c-0,2.893 -1.986,5.239 -4.436,5.239c-2.45,0 -4.433,-2.346 -4.433,-5.239m32.921,-59.405l-0,119.138c-0,1.992 1.616,3.61 3.608,3.61c1.994,0 3.611,-1.618 3.611,-3.61l-0,-122.748c-0,-1.992 -1.617,-3.608 -3.611,-3.608l-20.406,-0l-0,-6.63l-73.458,7.232l-0,122.704l73.458,16.939l-0,-133.027l16.798,0Zm-41.519,-35.985c51.777,-0 93.75,41.973 93.75,93.75c0,51.775 -41.973,93.75 -93.75,93.75c-51.775,0 -93.75,-41.975 -93.75,-93.75c0,-51.777 41.975,-93.75 93.75,-93.75" style="fill:#f25e0d;fill-rule:nonzero;"/></svg>