<?xml version="1.0" encoding="UTF-8" standalone="no"?><!DOCTYPE svg PUBLIC "-//W3C//DTD SVG 1.1//EN" "http://www.w3.org/Graphics/SVG/1.1/DTD/svg11.dtd"><svg width="100%" height="100%" viewBox="0 0 1043 1025" version="1.1" xmlns="http://www.w3.org/2000/svg" xmlns:xlink="http://www.w3.org/1999/xlink" xml:space="preserve" xmlns:serif="http://www.serif.com/" style="fill-rule:evenodd;clip-rule:evenodd;stroke-linejoin:round;stroke-miterlimit:2;"><g id="Layer-1" serif:id="Layer 1"></g><rect id="Монтажная-область1" serif:id="Монтажная область1" x="0" y="0" width="1042.76" height="1024.46" style="fill:none;"/><path id="path260" d="M258.968,821.704c-18.548,-3.937 -34.316,-11.967 -41.545,-21.157c-5.337,-6.786 -6.165,-12.737 -6.165,-44.327c0,-41.615 2.029,-45.888 27.048,-56.955l13.577,-6.006l0,-275.188l8.594,-8.583c8.166,-8.157 26.516,-16.444 45.313,-20.466l8.593,-1.839l0,-54.834c0,-35.259 1.28,-57.223 3.584,-61.529c9.635,-18.004 36.497,-28.518 72.979,-28.565c28.08,-0.035 45.624,4.168 61.201,14.665c16.322,11 18.389,18.006 18.44,62.518l0.046,39.948l20.779,-15.729c11.428,-8.652 22.142,-15.73 23.808,-15.73c1.667,-0 -0.45,-4.57 -4.702,-10.156c-24.459,-32.126 -38.206,-89.965 -25.645,-107.899c6.72,-9.594 21.474,-9.033 36.512,1.388c15.497,10.74 27.05,10.532 43.374,-0.78c18.464,-12.796 39.896,-12.768 59.227,0.082c17.359,11.535 29.628,11.76 43.988,0.808c12.48,-9.519 27.73,-11.045 35.249,-3.527c5.22,5.221 5.832,8.557 4.974,27.121c-0.407,8.806 0.68,11.719 4.376,11.719c8.842,-0 29.679,21.817 33.151,34.711c3.727,13.842 -0.219,33.911 -7.926,40.307c-7.113,5.904 -5.898,7.452 10.388,13.236c22.385,7.95 41.814,22.991 40.612,31.439c-1.414,9.936 -13.08,10.502 -23.192,1.125c-8.492,-7.874 -42.722,-20.818 -55.051,-20.818c-5.505,-0 -2.023,4.81 18.034,24.916c43.749,43.854 75.712,100.647 94.236,167.44c7.566,27.28 8.627,36.623 8.673,76.394c0.046,40.215 -0.763,47.334 -7.196,63.287c-14.322,35.522 -40.755,60.08 -80.484,74.779c-17.055,6.311 -25.404,6.941 -107.104,8.083c-48.734,0.682 -91.976,0.395 -96.094,-0.64c-8.085,-2.029 -9.978,-10.518 -3.737,-16.76c2.736,-2.736 27.149,-3.75 90.296,-3.75c77.368,0 88.666,-0.654 106.539,-6.175c49.711,-15.354 75.525,-48.699 79.583,-102.8c4.216,-56.212 -21.373,-140.236 -61.029,-200.395c-16.262,-24.669 -51.642,-60.971 -76.397,-78.386c-19.836,-13.955 -24.502,-15.286 -34.448,-9.83c-1.454,0.797 4.146,8.344 12.445,16.769c12.25,12.437 14.468,16.3 11.795,20.538c-1.811,2.871 -4.821,5.729 -6.689,6.352c-1.868,0.622 -13.628,-8.083 -26.133,-19.345c-12.505,-11.263 -23.884,-20.478 -25.286,-20.478c-1.403,0 -2.551,7.562 -2.551,16.805c0,17.701 -5.185,26.097 -14.022,22.705c-3.497,-1.341 -4.728,-6.72 -4.728,-20.662c0,-12.307 -1.268,-18.848 -3.656,-18.848c-2.011,0 -13.236,9.249 -24.944,20.553c-22.242,21.472 -31.472,24.533 -33.385,11.069c-0.792,-5.571 2.65,-10.651 14.062,-20.756l15.111,-13.38l-8.992,-2.307c-6.332,-1.624 -11.878,-0.643 -18.75,3.317c-19.347,11.15 -49.709,37.832 -66.75,58.66c-17.383,21.248 -23.679,24.225 -30.002,14.184c-2.607,-4.139 -0.894,-8.296 8.259,-20.044l11.547,-14.821l0,-70.194l-19.028,5.922c-24.475,7.618 -50.322,7.519 -75.225,-0.287c-10.895,-3.415 -20.161,-6.228 -20.59,-6.25c-0.43,-0.024 -0.782,16.514 -0.782,36.747l0,36.787l20.892,3.963c11.49,2.18 26.031,6.852 32.312,10.383c21.261,11.949 21.796,14.49 21.796,103.509l0,79.529l23.574,1.992c26.377,2.23 50.253,11.137 61.275,22.86c7.212,7.67 7.355,9.08 8.284,81.517c1.019,79.462 -0.126,87.08 -14.639,97.405c-21.852,15.545 -74.741,20.579 -104.854,9.98l-15.423,-5.429l-11.215,11.215c-6.225,6.225 -17.319,13.043 -24.936,15.325c-17.752,5.319 -54.367,7.158 -71.231,3.579l0,-0.006Zm72.603,-26.603c11.3,-5.638 12.592,-7.512 13.461,-19.518c1.086,-15.014 1.397,-14.877 -19.427,-8.56c-8.437,2.56 -25.44,4.654 -37.784,4.654c-12.345,-0 -29.348,-2.094 -37.785,-4.654c-8.437,-2.559 -16.395,-4.669 -17.684,-4.687c-4.142,-0.059 -2.496,24.075 1.891,27.715c16.85,13.985 73.525,16.925 97.328,5.05Zm118.783,-15.752c30.24,-7.876 29.654,-6.513 29.654,-68.955l0,-54.065l-13.281,4.772c-27.901,10.025 -67.581,8.606 -96.875,-3.464c-5.079,-2.093 -5.469,1.43 -5.469,49.388c0,28.402 0.874,53.917 1.941,56.699c3.665,9.55 30.513,19.192 55.996,20.111c5.225,0.189 17.84,-1.83 28.034,-4.486Zm-120.346,-36.732c7.735,-3.783 14.063,-8.835 14.063,-11.228c-0,-7.315 -14.619,-15.442 -35.182,-19.558c-32.416,-6.489 -77.318,4.768 -77.318,19.383c-0,5.717 16.859,15.092 33.292,18.514c19.515,4.062 48.844,0.861 65.145,-7.111Zm15.625,-84.389l0,-41.575l10.212,-9.898c5.616,-5.443 14.757,-11.482 20.312,-13.418l10.101,-3.521l0,-65.32c0,-35.925 -0.526,-65.319 -1.169,-65.319c-0.644,-0 -7.323,2.298 -14.844,5.106c-8.709,3.253 -23.319,5.107 -40.237,5.107c-16.917,-0 -31.527,-1.854 -40.236,-5.107c-7.521,-2.808 -14.921,-5.106 -16.445,-5.106c-1.576,-0 -2.417,49.541 -1.951,114.844l0.82,114.843l25,2c13.75,1.1 28.515,3.472 32.812,5.271c15.581,6.523 15.625,6.415 15.625,-37.907Zm122.01,-19.655c23.419,-13.677 4.894,-29.425 -37.471,-31.855c-27.242,-1.563 -46.502,2.734 -58.493,13.049l-8.43,7.25l6.841,5.924c11.469,9.93 28.529,13.656 58.491,12.774c21.612,-0.637 30.801,-2.317 39.062,-7.142Zm-94.666,-197.67c14.374,-7.417 16.35,-12.452 7.813,-19.909c-14.724,-12.861 -60.091,-16.493 -88.431,-7.08c-25.642,8.517 -24.843,20.836 1.976,30.466c21.4,7.685 60.348,5.963 78.642,-3.477Zm179.686,-141.618c-8.143,-18.835 -10.215,-26.814 -7.909,-30.469c4.756,-7.54 14.525,-5.993 18.067,2.861c1.719,4.297 8.06,17.656 14.092,29.687c15.581,31.08 20.801,30.992 36.621,-0.615c6.721,-13.427 13.074,-27.682 14.119,-31.677c1.419,-5.426 3.737,-7.004 9.159,-6.236c11.055,1.566 10.923,14.984 -0.386,39.149c-5.308,11.344 -8.938,21.338 -8.066,22.21c2.571,2.571 25.778,-8.997 32.493,-16.197c10.457,-11.211 21.652,-36.879 25.725,-58.981c2.134,-11.582 2.917,-22.02 1.741,-23.196c-1.175,-1.176 -6.691,1.278 -12.255,5.453c-8.125,6.095 -13.86,7.59 -29.112,7.59c-15.905,0 -20.825,-1.397 -30.26,-8.593c-15.013,-11.451 -28.106,-11.135 -46.059,1.113c-12.319,8.405 -16.109,9.43 -30.565,8.272c-10.352,-0.829 -19.915,-3.844 -25.655,-8.088c-5.033,-3.722 -9.912,-6.766 -10.841,-6.766c-3.861,-0 -1.261,25.722 4.469,44.202c8.75,28.223 33.681,55.748 50.529,55.786c4.266,0.01 3.275,-4.266 -5.907,-25.506l-0,0.001Zm153.6,21.16c21.866,-9.137 27.05,-30.319 11.28,-46.089c-10.477,-10.477 -14.036,-9.894 -16.638,2.725c-0.982,4.762 -6.788,16.915 -12.903,27.006c-6.115,10.091 -11.119,18.88 -11.119,19.531c0,2.922 19.949,0.767 29.38,-3.173Zm-269.928,-25.588c14.727,-8.601 14.23,-16.848 -1.476,-24.514c-26.308,-12.841 -82.226,-8.783 -96.513,7.003c-6.402,7.075 -3.38,11.352 13.624,19.285c19.119,8.92 67.807,7.896 84.365,-1.774Zm247.642,421.924c-9.85,-7.324 -1.212,-14.692 22.315,-19.035c29.94,-5.525 46.235,-15.962 56.227,-36.012c4.463,-8.956 8.114,-20.829 8.114,-26.385c0,-9.392 6.523,-19.922 12.341,-19.922c6.992,-0 10.245,10.087 8.207,25.449c-2.72,20.505 -14.039,42.807 -27.903,54.981c-19.786,17.372 -67.24,29.894 -79.301,20.924Zm-123.008,-117.995c-14.501,-7.649 -27.691,-26.083 -27.784,-38.828c-0.039,-5.305 -1.875,-7.031 -7.482,-7.031c-15.908,-0 -18.139,-17.536 -2.462,-19.349c6.869,-0.795 8.502,-2.745 9.309,-11.12c0.863,-8.952 0.074,-10.156 -6.649,-10.156c-16.848,-0 -18.952,-17.419 -2.502,-20.709c7.383,-1.477 9.547,-3.876 11.136,-12.345c2.318,-12.356 14.461,-27.793 26.94,-34.246c5.688,-2.941 18.131,-4.575 34.84,-4.575c22.655,-0 27.486,1.014 37.621,7.902c18.495,12.568 29.189,39.785 19.456,49.518c-6.316,6.315 -17.134,1.654 -17.134,-7.383c0,-21.092 -17.829,-32.783 -46.798,-30.688c-16.709,1.209 -20.906,2.752 -27.111,9.965c-4.037,4.694 -7.341,11.268 -7.341,14.61c0,5.176 2.227,6.076 15.028,6.076c18.487,-0 28.775,6.361 23.711,14.661c-2.537,4.158 -8.112,5.899 -21.093,6.589l-17.646,0.937l0,21.563l18.416,0c14.124,0 18.87,1.185 20.366,5.084c3.435,8.95 -4.15,13.666 -21.977,13.666c-15.479,0 -16.805,0.571 -16.805,7.228c0,3.976 3.944,11.007 8.765,15.625c7.839,7.511 11.121,8.397 31.076,8.397c18.678,0 23.651,-1.152 30.543,-7.08c4.527,-3.895 9.206,-11.846 10.397,-17.671c2.787,-13.624 10.919,-19.263 17.823,-12.359c11.523,11.523 -6.329,45.323 -28.923,54.763c-16.537,6.91 -47.673,5.423 -63.72,-3.043l-0,-0.001Z" style="fill-rule:nonzero;"/></svg>