<?xml version="1.0" encoding="UTF-8" standalone="no"?><!DOCTYPE svg PUBLIC "-//W3C//DTD SVG 1.1//EN" "http://www.w3.org/Graphics/SVG/1.1/DTD/svg11.dtd"><svg width="100%" height="100%" viewBox="0 0 103 94" version="1.1" xmlns="http://www.w3.org/2000/svg" xmlns:xlink="http://www.w3.org/1999/xlink" xml:space="preserve" xmlns:serif="http://www.serif.com/" style="fill-rule:evenodd;clip-rule:evenodd;stroke-linejoin:round;stroke-miterlimit:2;"><g><path id="path149" d="M33.142,85.855l0.146,-7.896l11.816,-11.436c6.498,-6.289 12.441,-12.021 13.205,-12.737c1.323,-1.24 1.362,-1.431 0.82,-4.029c-1.102,-5.279 1.02,-11.99 5.273,-16.674c4.633,-5.102 9.321,-7.237 15.886,-7.236c11.974,0.002 20.326,7.217 22.194,19.173c0.492,3.147 0.42,4.086 -0.599,7.761c-0.988,3.567 -1.6,4.663 -4.168,7.466c-5.079,5.545 -12.488,8.656 -18.898,7.936c-3.16,-0.355 -3.428,-0.286 -5.066,1.29c-1.331,1.281 -2.466,1.756 -4.92,2.06c-3.417,0.424 -3.399,0.404 -4.073,4.564c-0.399,2.467 -0.396,2.465 -4.486,2.966l-2.949,0.361l-0.301,3.195c-0.166,1.757 -0.383,3.285 -0.484,3.395c-0.101,0.11 -1.71,0.407 -3.577,0.659l-3.394,0.458l-0.907,6.619l-15.664,-0l0.146,-7.895Zm23.185,-22.007c3.718,-3.63 6.491,-6.697 6.164,-6.817c-0.328,-0.12 -3.607,2.734 -7.285,6.343c-3.679,3.608 -8.579,8.388 -10.89,10.622c-6.126,5.924 -7.089,6.966 -7.089,7.674c-0,0.615 4.879,-3.938 19.1,-17.822Zm37.708,-16.733c1.82,-1.994 1.754,-3.24 -0.381,-7.262c-2.211,-4.163 -8.576,-7.807 -11.667,-6.678c-2.172,0.793 -3.472,3.122 -3.067,5.492c0.474,2.77 4.169,7.185 7.387,8.828c3.687,1.881 5.758,1.78 7.728,-0.38Z" style="fill:#ffca71;fill-rule:nonzero;"/><path id="path1491" serif:id="path149" d="M4.406,86.785c-4.239,-2.809 -4.18,-2.447 -4.366,-26.813c-0.116,-15.101 0.017,-22.275 0.441,-23.886c0.735,-2.791 3.248,-5.804 5.529,-6.629l1.679,-0.607l0.231,-4.817c0.379,-7.917 3.932,-14.499 10.441,-19.344c4.584,-3.412 8.69,-4.699 14.951,-4.689c4.621,0.008 5.794,0.228 9.453,1.776c6.719,2.844 12.062,8.55 14.39,15.37c0.602,1.764 1.313,5.518 1.579,8.342l0.485,5.135l-1.823,3.02c-2.33,3.858 -3.518,8.325 -3.519,13.231l-0.001,3.88l-8.371,8.063c-4.605,4.434 -8.705,8.062 -9.113,8.062c-0.57,0 -0.741,-0.97 -0.741,-4.209c0,-3.925 0.106,-4.321 1.576,-5.863c2.567,-2.696 2.064,-6.868 -1.04,-8.628c-4.001,-2.268 -8.881,0.316 -8.921,4.723c-0.011,1.253 0.492,2.485 1.559,3.817c1.514,1.89 1.575,2.179 1.575,7.435c-0,4.985 0.093,5.495 1.05,5.77c1.544,0.442 1.306,1.173 -1.181,3.632l-2.232,2.207l-0.525,12.124l-10.503,0.145c-10.293,0.142 -10.545,0.117 -12.603,-1.247l-0,0Zm46.999,-60.432c0,-10.785 -8.126,-19.332 -18.379,-19.332c-9.945,-0 -17.421,7.342 -18.229,17.902l-0.303,3.969l36.911,-0l0,-2.539Z" style="fill:#3974b1;fill-rule:nonzero;"/></g></svg>