<?xml version="1.0" standalone="no"?>
<!DOCTYPE svg PUBLIC "-//W3C//DTD SVG 20010904//EN"
 "http://www.w3.org/TR/2001/REC-SVG-20010904/DTD/svg10.dtd">
<svg version="1.0" xmlns="http://www.w3.org/2000/svg"
 width="491.000000pt" height="491.000000pt" viewBox="0 0 491.000000 491.000000"
 preserveAspectRatio="xMidYMid meet">

<g transform="translate(0.000000,491.000000) scale(0.100000,-0.100000)"
fill="#000000" stroke="none">
<path d="M2280 4891 c-19 -11 -46 -30 -59 -44 -23 -25 -54 -117 -71 -212 -5
-27 -14 -61 -19 -75 -6 -14 -17 -54 -26 -89 -19 -77 -29 -91 -66 -91 -16 0
-43 -6 -61 -14 -37 -15 -117 -37 -163 -43 -28 -4 -43 8 -182 151 -132 136
-157 157 -197 168 -51 13 -126 0 -157 -28 -8 -8 -20 -14 -26 -14 -5 0 -29 -13
-51 -30 -23 -16 -46 -30 -50 -30 -12 0 -53 -39 -75 -70 -21 -30 -23 -123 -3
-177 22 -61 46 -148 46 -167 0 -10 7 -30 15 -44 19 -36 34 -116 24 -134 -10
-19 -178 -187 -197 -197 -17 -10 -129 12 -145 28 -6 6 -20 11 -31 11 -20 0
-105 23 -169 46 -54 20 -147 18 -177 -3 -31 -22 -70 -63 -70 -75 0 -4 -14 -27
-30 -50 -17 -22 -30 -46 -30 -51 0 -6 -6 -18 -14 -26 -28 -31 -41 -106 -28
-157 11 -41 32 -65 168 -198 145 -140 155 -153 150 -181 -11 -63 -34 -152 -45
-173 -6 -11 -11 -34 -11 -50 0 -39 -13 -49 -104 -72 -42 -11 -81 -22 -85 -24
-4 -3 -32 -10 -62 -15 -98 -18 -190 -48 -216 -72 -52 -49 -63 -88 -63 -221 0
-108 3 -129 22 -168 26 -51 70 -84 131 -99 23 -5 61 -15 85 -20 23 -6 61 -16
85 -21 84 -20 190 -50 195 -55 3 -3 8 -24 12 -47 5 -24 12 -56 18 -73 29 -87
42 -135 42 -157 0 -18 -38 -61 -154 -172 -155 -149 -176 -179 -176 -247 0 -33
21 -86 51 -134 14 -22 29 -47 32 -55 20 -44 48 -78 86 -108 35 -26 52 -32 92
-32 27 0 66 6 86 14 66 25 141 46 161 46 11 0 39 8 63 19 24 10 63 21 87 25
l42 6 106 -105 c72 -73 103 -111 100 -123 -3 -9 -8 -35 -12 -57 -4 -22 -13
-49 -20 -60 -8 -11 -14 -28 -14 -39 0 -23 -27 -118 -46 -164 -8 -18 -14 -61
-14 -95 0 -54 4 -67 30 -98 26 -32 139 -109 159 -109 5 0 14 -6 20 -14 7 -8
37 -22 66 -32 96 -30 118 -18 300 167 166 168 166 168 225 139 8 -4 35 -11 60
-15 25 -4 54 -12 65 -18 11 -6 38 -13 60 -16 l39 -6 24 -90 c13 -49 29 -110
34 -135 39 -180 68 -240 135 -277 36 -20 295 -17 336 3 55 29 81 66 93 132 4
20 13 49 20 64 8 15 14 40 14 55 0 15 6 48 14 73 8 25 23 74 33 110 19 64 20
65 59 71 21 4 53 12 69 18 17 6 63 20 104 32 l75 22 156 -160 c136 -139 163
-161 204 -173 40 -11 53 -10 101 5 30 9 55 21 55 25 0 5 9 12 21 15 44 14 142
80 166 112 17 22 28 51 31 83 4 46 0 66 -44 195 -8 23 -14 50 -14 62 0 11 -8
40 -19 64 -10 24 -22 64 -25 88 l-7 43 104 105 104 104 44 -7 c24 -3 64 -15
88 -25 24 -11 52 -19 63 -19 22 0 111 -27 143 -43 11 -5 49 -12 85 -14 60 -5
68 -3 106 25 37 27 103 122 119 171 3 12 10 21 15 21 4 0 16 25 25 55 16 48
16 61 4 102 -11 42 -33 67 -171 203 l-158 155 11 35 c6 19 17 60 24 90 7 30
19 75 26 100 6 25 13 50 14 56 2 5 32 18 66 28 35 9 80 22 99 28 19 7 55 15
80 19 101 17 190 49 221 80 42 40 49 74 49 219 0 142 -4 160 -43 206 -24 29
-166 84 -215 84 -11 0 -42 7 -68 14 -27 8 -82 24 -121 36 -71 20 -73 21 -73
53 0 18 -6 44 -14 59 -8 14 -17 45 -21 69 -4 23 -14 57 -21 75 -8 18 -14 38
-14 43 0 5 72 80 159 166 216 213 220 228 104 423 -31 51 -71 106 -90 122 -30
27 -41 30 -98 30 -35 0 -79 -6 -97 -14 -46 -19 -141 -46 -164 -46 -11 0 -28
-6 -39 -14 -11 -7 -38 -16 -60 -20 -22 -4 -47 -9 -56 -12 -10 -3 -54 33 -122
101 l-107 105 6 42 c4 24 15 63 25 87 11 24 19 54 19 67 0 13 4 33 9 46 63
158 66 241 10 302 -19 21 -43 42 -54 47 -11 5 -29 15 -40 21 -137 88 -177 100
-256 76 -30 -8 -72 -45 -186 -165 -109 -113 -154 -153 -172 -153 -21 0 -70 13
-156 42 -16 6 -49 13 -73 18 -23 4 -44 9 -47 12 -5 5 -35 111 -55 196 -5 23
-15 61 -21 85 -5 23 -15 61 -20 84 -15 61 -48 105 -99 131 -39 19 -59 22 -170
22 -102 -1 -131 -4 -160 -19z m237 -147 c23 -6 49 -80 92 -259 38 -157 41
-166 62 -195 30 -40 63 -53 239 -94 30 -7 65 -18 76 -24 35 -19 127 -26 167
-13 27 9 76 54 179 162 78 82 149 151 158 154 21 7 112 -39 152 -77 25 -23 28
-30 18 -48 -6 -12 -22 -60 -35 -108 -13 -48 -28 -100 -33 -117 -40 -118 -49
-193 -27 -235 21 -41 259 -279 302 -302 40 -22 70 -23 120 -4 21 8 56 17 78
21 22 4 45 10 50 14 6 5 51 18 100 31 50 12 98 26 108 32 26 14 50 2 71 -34
35 -61 66 -119 66 -126 0 -4 -72 -77 -159 -163 -132 -129 -161 -163 -170 -197
-12 -44 -2 -110 25 -164 8 -15 14 -37 14 -49 0 -12 6 -45 14 -73 8 -28 20 -70
26 -94 14 -56 64 -103 126 -118 27 -7 76 -20 109 -28 33 -9 83 -21 110 -25 28
-5 75 -18 105 -29 l55 -19 3 -96 3 -96 -28 -6 c-15 -4 -44 -13 -63 -20 -19 -8
-57 -19 -85 -24 -27 -5 -77 -17 -110 -26 -33 -9 -76 -20 -96 -24 -72 -16 -138
-90 -139 -157 0 -12 -7 -38 -15 -57 -8 -20 -15 -49 -15 -64 0 -15 -6 -40 -14
-54 -7 -14 -19 -49 -25 -76 -24 -99 -15 -111 296 -411 35 -34 37 -57 8 -92 -7
-8 -16 -25 -19 -37 -4 -12 -20 -36 -36 -53 -28 -30 -30 -31 -59 -16 -17 9 -38
16 -47 16 -22 0 -118 28 -162 46 -18 8 -45 14 -60 14 -15 1 -38 7 -52 15 -40
23 -105 19 -148 -10 -43 -28 -260 -247 -285 -287 -21 -33 -22 -104 -2 -138 8
-14 14 -38 15 -53 0 -16 5 -37 11 -48 10 -20 31 -89 51 -174 5 -21 13 -44 19
-51 5 -6 7 -19 3 -27 -7 -19 -68 -67 -85 -67 -7 0 -20 -6 -28 -14 -43 -37 -51
-32 -187 106 -180 183 -181 184 -226 197 -31 10 -51 10 -91 0 -29 -7 -57 -16
-63 -21 -6 -4 -31 -12 -55 -17 -212 -42 -270 -76 -290 -169 -4 -20 -16 -71
-27 -112 -11 -41 -23 -95 -27 -120 -4 -25 -11 -49 -15 -55 -4 -5 -13 -29 -20
-53 l-11 -43 -96 3 -97 3 -8 35 c-5 19 -13 44 -19 54 -6 11 -15 42 -19 70 -5
28 -16 78 -25 111 -9 33 -22 82 -29 109 -15 62 -62 112 -118 126 -24 6 -64 17
-89 25 -26 8 -59 15 -73 15 -15 0 -39 6 -54 14 -15 7 -49 18 -75 25 -88 21
-112 7 -286 -171 -85 -87 -160 -158 -166 -158 -7 0 -24 9 -38 20 -14 11 -30
20 -35 20 -19 0 -81 45 -87 63 -4 10 -2 23 3 30 5 7 14 32 20 57 6 25 16 68
23 95 6 28 15 55 19 60 5 6 11 28 15 50 4 22 13 57 21 78 32 86 17 113 -147
279 -183 183 -179 182 -384 116 -54 -17 -139 -40 -177 -48 -21 -4 -44 -13 -52
-19 -22 -18 -48 -6 -70 31 -40 69 -66 119 -66 130 0 5 70 77 154 160 110 106
158 160 167 185 13 40 6 132 -13 167 -6 11 -17 46 -24 76 -24 102 -41 165 -54
191 -16 35 -59 66 -107 78 -21 5 -72 18 -113 29 -41 11 -94 23 -118 27 -24 4
-56 13 -70 21 -15 8 -37 14 -49 14 -12 0 -27 9 -33 19 -14 28 -13 154 2 173
14 16 99 44 238 77 171 40 194 49 227 85 18 19 35 48 38 63 4 15 13 48 20 73
7 25 16 63 20 85 4 22 13 55 21 73 22 47 28 124 15 165 -11 33 -56 80 -288
304 -18 18 -33 40 -33 48 0 27 80 154 101 160 11 4 25 2 32 -3 7 -5 28 -13 47
-16 19 -4 46 -11 60 -15 14 -5 59 -18 100 -30 41 -13 96 -29 121 -37 59 -18
83 -18 123 1 40 19 285 262 309 307 21 39 21 84 2 118 -8 14 -14 37 -15 52 0
14 -9 50 -19 80 -10 29 -24 73 -31 98 -7 25 -19 66 -28 92 -18 54 -14 63 45
93 21 10 49 27 62 37 13 10 32 18 41 18 10 0 73 -57 141 -127 170 -174 179
-181 218 -194 39 -13 117 -6 163 15 18 8 51 17 73 21 22 4 60 13 85 20 25 7
57 16 72 19 44 10 96 63 109 109 5 23 14 56 19 72 34 121 40 145 40 171 0 16
6 41 14 56 8 15 17 40 21 57 4 17 14 35 23 41 19 10 124 13 159 4z"/>
<path d="M2243 4079 c-43 -27 -51 -68 -24 -115 24 -40 20 -54 -14 -54 -35 0
-155 -29 -192 -45 -17 -8 -38 -15 -46 -15 -30 0 -269 -113 -288 -136 -6 -8
-17 -14 -25 -14 -7 0 -19 -6 -26 -12 -7 -7 -40 -33 -72 -58 -92 -70 -173 -148
-240 -231 -100 -124 -106 -133 -106 -143 0 -5 -6 -17 -14 -25 -29 -33 -100
-184 -145 -311 -23 -64 -48 -184 -66 -322 -17 -130 -18 -143 -1 -260 22 -161
45 -273 62 -306 8 -15 14 -34 14 -43 0 -20 60 -159 100 -229 125 -222 322
-427 525 -546 27 -16 59 -34 70 -41 25 -15 59 -31 105 -50 19 -8 44 -19 55
-24 11 -5 45 -16 75 -23 50 -13 58 -13 85 3 48 27 51 94 6 128 -9 7 -32 17
-51 23 -68 22 -216 93 -280 134 -178 116 -284 223 -406 406 -34 52 -134 253
-134 270 0 7 -7 33 -15 59 -39 125 -40 136 -40 371 0 216 2 241 23 310 13 41
27 89 31 106 5 17 20 56 35 87 14 31 31 66 36 79 10 24 15 32 63 106 15 24 27
47 27 52 0 5 6 13 13 17 6 4 31 33 55 64 46 61 134 148 197 194 22 17 44 36
48 42 4 7 12 13 17 13 5 0 29 14 53 30 25 17 48 30 53 30 4 0 15 6 23 13 23
19 176 82 241 100 30 8 72 19 93 25 l37 10 0 -36 c0 -72 51 -123 102 -103 12
5 67 53 121 106 89 89 97 100 97 135 0 35 -8 47 -82 122 -131 132 -144 139
-195 107z"/>
<path d="M2799 3841 c-16 -17 -29 -40 -29 -54 0 -31 61 -87 93 -87 13 0 79
-28 147 -63 188 -95 340 -214 438 -342 26 -33 50 -64 55 -70 23 -29 76 -118
106 -180 19 -38 40 -81 47 -95 6 -14 15 -41 19 -60 4 -19 11 -41 15 -50 5 -8
17 -46 27 -85 15 -58 18 -107 17 -295 -1 -203 -3 -232 -23 -300 -12 -41 -27
-91 -33 -110 -5 -19 -23 -63 -39 -98 -16 -34 -29 -66 -29 -71 0 -5 -7 -14 -15
-21 -8 -7 -15 -18 -15 -25 0 -7 -15 -36 -34 -63 -117 -174 -263 -319 -411
-407 -27 -17 -59 -36 -70 -43 -11 -7 -29 -16 -40 -21 -11 -5 -42 -19 -70 -32
-81 -36 -250 -83 -266 -73 -5 3 -9 24 -9 48 0 35 -5 46 -30 64 -49 37 -65 30
-176 -79 -148 -146 -148 -147 8 -301 76 -75 94 -88 122 -88 68 0 101 86 55
144 -24 30 -30 27 91 51 47 9 100 23 118 31 18 8 38 14 46 14 26 0 214 87 306
143 74 44 188 138 267 218 125 128 201 235 275 389 56 117 68 147 68 165 0 9
6 28 13 43 28 56 70 313 70 427 1 114 -39 364 -69 433 -8 18 -14 38 -14 46 0
13 -56 146 -87 206 -58 111 -194 291 -286 376 -65 61 -210 174 -223 174 -4 0
-15 6 -23 14 -53 47 -313 156 -372 156 -6 0 -24 -13 -40 -29z"/>
<path d="M2300 3351 c-30 -4 -71 -13 -90 -20 -19 -6 -57 -19 -85 -28 -27 -9
-57 -22 -66 -29 -8 -8 -20 -14 -26 -14 -49 0 -285 -211 -338 -301 -61 -104
-73 -128 -90 -180 -10 -30 -25 -74 -33 -99 -12 -34 -16 -85 -17 -210 0 -161 1
-167 34 -270 19 -58 40 -112 46 -120 7 -8 14 -22 18 -31 12 -37 82 -133 139
-195 97 -103 228 -190 348 -229 30 -10 72 -24 93 -31 26 -10 89 -14 207 -14
165 0 174 1 268 32 282 93 489 299 588 585 33 96 34 101 34 270 0 121 -4 184
-14 210 -7 21 -19 56 -26 78 -60 193 -227 396 -404 489 -27 14 -54 30 -60 34
-6 5 -55 23 -110 41 -86 28 -115 32 -230 36 -72 2 -156 0 -186 -4z m291 -165
c14 -7 43 -16 65 -20 51 -10 159 -61 209 -99 149 -113 241 -245 284 -407 7
-25 16 -61 21 -80 12 -45 12 -185 0 -230 -29 -110 -43 -150 -67 -200 -57 -117
-137 -212 -233 -278 -95 -65 -154 -90 -310 -132 -45 -12 -185 -12 -230 0 -19
5 -55 14 -80 21 -160 42 -325 158 -406 284 -10 17 -21 32 -25 35 -13 10 -68
137 -75 174 -4 22 -13 51 -20 65 -23 43 -19 244 6 314 11 31 20 61 20 67 0 43
107 217 175 285 76 77 221 162 304 180 19 4 48 13 65 21 43 18 262 19 297 0z"/>
<path d="M2387 2930 c-9 -11 -19 -30 -22 -42 -3 -13 -23 -34 -43 -48 -88 -60
-116 -111 -117 -210 0 -63 4 -82 25 -115 47 -77 103 -114 186 -126 75 -10 104
-32 104 -78 0 -84 -82 -109 -151 -46 -56 50 -105 46 -132 -10 -15 -31 -15 -38
-1 -70 8 -21 37 -53 69 -78 30 -23 55 -47 55 -54 0 -6 12 -25 26 -42 19 -23
34 -31 58 -31 35 0 76 34 76 62 0 9 24 34 54 56 29 22 65 61 80 86 22 38 26
56 26 123 0 71 -3 82 -31 124 -48 69 -130 117 -204 119 -39 1 -74 30 -81 69
-5 25 -1 36 24 61 40 40 72 39 121 -5 21 -19 47 -36 57 -36 50 -5 64 2 83 38
19 37 19 38 0 75 -11 21 -44 56 -74 79 -30 23 -55 49 -55 58 0 52 -98 82 -133
41z"/>
</g>
</svg>
