<?xml version="1.0" encoding="UTF-8" standalone="no"?><!DOCTYPE svg PUBLIC "-//W3C//DTD SVG 1.1//EN" "http://www.w3.org/Graphics/SVG/1.1/DTD/svg11.dtd"><svg width="100%" height="100%" viewBox="0 0 157 147" version="1.1" xmlns="http://www.w3.org/2000/svg" xmlns:xlink="http://www.w3.org/1999/xlink" xml:space="preserve" xmlns:serif="http://www.serif.com/" style="fill-rule:evenodd;clip-rule:evenodd;stroke-linejoin:round;stroke-miterlimit:2;"><g><path d="M67.697,141.857c0.701,-0.429 1.592,-0.709 2.066,-1.315c1.181,-1.51 2.238,-3.13 3.22,-4.78c0.781,-1.312 0.31,-2.938 -0.906,-3.75c-1.219,-0.813 -2.752,-0.692 -3.683,0.526c-1.227,1.604 -2.394,3.276 -3.379,5.036c-1.048,1.874 0.386,4.036 2.682,4.283m-17.439,-6.34c-0.029,2.306 0.859,3.724 2.343,4.376c1.531,0.673 3.441,0.465 4.453,-0.864c1.648,-2.165 3.189,-4.434 4.542,-6.792c0.868,-1.51 0.308,-3.06 -0.886,-4.291c-1.164,-1.2 -3.126,-1.731 -4.453,-0.78c-3.082,2.212 -4.646,5.553 -5.999,8.351m-7.102,-12.346c-0.983,0.62 -2.208,1.046 -2.898,1.901c-1.486,1.843 -2.773,3.862 -3.999,5.895c-1.12,1.855 -0.56,4.011 1.166,5.232c1.774,1.255 4.087,1.029 5.432,-0.745c1.466,-1.931 2.858,-3.939 4.061,-6.04c1.549,-2.705 -0.457,-5.923 -3.762,-6.243m-12.232,4.086c0.931,-0.535 2.124,-0.864 2.744,-1.646c1.567,-1.973 2.975,-4.091 4.257,-6.263c1.072,-1.815 0.373,-4.056 -1.358,-5.183c-1.741,-1.133 -4.033,-0.857 -5.311,0.845c-1.455,1.938 -2.852,3.941 -4.051,6.042c-1.528,2.678 0.503,5.934 3.719,6.205m83.735,-99.028c-6.377,-6.369 -12.775,-12.76 -19.089,-19.066l0,19.066l19.089,0Zm36.825,67.364c-0.243,-0.875 -0.349,-1.318 -0.49,-1.75c-4.353,-13.418 -8.707,-26.835 -13.069,-40.25c-0.674,-2.075 -1.576,-2.521 -3.692,-1.836c-4.865,1.576 -9.726,3.164 -14.587,4.752c-2.29,0.748 -2.681,1.526 -1.928,3.862c1.955,6.064 3.916,12.126 5.879,18.187c2.353,7.264 4.706,14.527 7.066,21.788c0.62,1.905 1.535,2.645 3.034,2.177c5.364,-1.677 10.717,-3.394 16.03,-5.223c0.758,-0.261 1.276,-1.22 1.757,-1.707m-128.511,7.018c1.439,0.004 2.084,-0.701 2.453,-1.84c4.417,-13.609 8.856,-27.211 13.266,-40.822c0.581,-1.794 0.028,-2.769 -1.795,-3.364c-5.006,-1.634 -10.016,-3.255 -15.03,-4.865c-1.936,-0.622 -2.888,-0.165 -3.502,1.727c-4.405,13.561 -8.8,27.125 -13.184,40.692c-0.587,1.819 -0.105,2.707 1.768,3.319c5.053,1.652 10.112,3.282 15.17,4.917c0.334,0.108 0.677,0.188 0.854,0.236m92.452,-33.201c-0.997,0.277 -1.811,0.545 -2.643,0.726c-3.914,0.854 -7.719,1.091 -11.216,-1.501c-1.121,-0.831 -2.491,-1.357 -3.797,-1.904c-2.758,-1.156 -5.711,-2.002 -8.615,-1.219c-12.385,3.338 -23.034,9.689 -31.888,18.981c-0.27,0.283 -0.57,0.882 -0.448,1.139c1.956,4.108 3.656,6.271 8.114,4.652c7.808,-2.835 15.759,-5.278 23.669,-7.824c0.766,-0.247 1.725,-0.267 2.501,-0.055c7.42,2.027 14.522,4.861 21.126,8.818c4.34,2.601 8.567,5.389 12.912,8.136c-3.22,-9.927 -6.445,-19.867 -9.715,-29.949m-37.963,68.71c1.937,1.009 3.771,2.098 5.711,2.944c2.645,1.154 5.265,-0.811 5.074,-3.674c-0.103,-1.55 -1.053,-2.459 -2.327,-3.135c-2.51,-1.331 -5.028,-2.646 -7.526,-3.999c-1.021,-0.553 -1.623,-1.436 -1.411,-2.626c0.207,-1.159 0.978,-1.973 2.156,-2.032c0.703,-0.036 1.485,0.276 2.137,0.614c3.691,1.915 7.337,3.92 11.034,5.827c3.258,1.682 6.679,0.034 7.358,-3.471c0.383,-1.978 -0.669,-4.044 -2.709,-5.156c-2.582,-1.408 -5.205,-2.742 -7.788,-4.15c-1.486,-0.811 -1.94,-2.146 -1.259,-3.42c0.698,-1.306 2.031,-1.678 3.521,-0.968c0.457,0.217 0.895,0.476 1.343,0.713c3.809,2.021 7.612,4.054 11.431,6.055c1.825,0.956 3.653,0.848 5.317,-0.347c1.583,-1.136 2.157,-2.768 1.892,-4.684c-0.242,-1.752 -1.26,-2.916 -2.799,-3.725c-4.042,-2.123 -8.086,-4.242 -12.081,-6.45c-0.744,-0.41 -1.597,-1.138 -1.789,-1.878c-0.187,-0.717 0.203,-1.806 0.712,-2.429c0.745,-0.912 1.866,-0.842 2.922,-0.279c3.401,1.816 6.811,3.613 10.217,5.417c2.689,1.425 5.353,2.901 8.075,4.261c3.037,1.517 6.518,-0.091 7.109,-3.319c0.425,-2.315 -0.823,-4.043 -2.581,-5.313c-9.18,-6.632 -18.923,-12.197 -29.926,-15.266c-0.815,-0.227 -1.823,-0.236 -2.622,0.021c-7.862,2.525 -15.699,5.127 -23.542,7.709c-3.736,1.229 -7.04,0.395 -9.49,-2.578c-1.619,-1.965 -2.757,-4.336 -4.026,-6.572c-0.732,-1.291 -0.531,-2.546 0.609,-3.576c3.762,-3.399 7.395,-6.958 11.336,-10.137c2.82,-2.275 6.054,-4.039 9.183,-6.084c-3.697,-1.323 -7.357,-3.136 -11.395,-1.848c-2.777,0.886 -5.525,2.034 -8.057,3.467c-2.495,1.412 -5.004,1.847 -7.742,1.46c-1.482,-0.21 -2.951,-0.509 -4.473,-0.775c-1.508,4.636 -2.947,9.163 -4.455,13.668c-2.471,7.38 -4.986,14.745 -7.477,22.118c-0.062,0.183 -0.117,0.394 -0.087,0.577c0.277,1.671 2.868,3.662 4.573,3.532c4.555,-0.347 8.392,2.401 9.477,6.854c0.233,0.958 0.26,1.967 0.34,2.615c1.792,0.699 3.546,1.076 4.924,2.008c1.407,0.952 2.444,2.449 3.713,3.78c2.26,-1.679 4.907,-2.565 7.961,-1.797c3.076,0.773 5.064,2.789 6.383,5.564c3.39,-1.588 6.569,-1.546 9.322,0.966c2.885,2.632 3.301,5.888 1.732,9.518m-34.813,-74.283c2.946,0.766 5.667,1.467 8.522,-0.344c6.867,-4.356 14.126,-5.677 21.858,-2.287c1.991,0.872 4.033,2.189 6.073,2.229c2.041,0.041 4.067,-1.433 6.175,-1.926c2.391,-0.559 4.872,-1.11 7.299,-1.05c4.13,0.103 7.992,1.607 11.389,3.88c3.349,2.24 6.507,1.358 9.906,0.326c-0.401,-1.244 -0.771,-2.341 -1.107,-3.449c-1.249,-4.11 0.604,-7.814 4.69,-9.18c1.034,-0.345 1.403,-0.797 1.389,-1.903c-0.062,-5.074 -0.025,-10.15 -0.031,-15.225c-0.001,-0.486 -0.055,-0.972 -0.091,-1.562l-1.953,-0c-7.525,-0 -15.05,0.002 -22.575,-0.001c-2.949,-0.002 -3.7,-0.747 -3.701,-3.688c-0.006,-7.562 -0.002,-15.124 -0.002,-22.687l-0,-1.849c-0.576,-0.035 -0.976,-0.08 -1.376,-0.08c-16.474,-0.004 -32.947,-0.006 -49.421,-0c-1.968,0 -2.255,0.3 -2.256,2.352c-0.005,14.262 0.015,28.523 -0.033,42.784c-0.004,1.161 0.457,1.53 1.438,1.864c3.99,1.356 5.87,5.057 4.687,9.08c-0.255,0.866 -0.555,1.718 -0.88,2.716m113.601,29.908l-0,3.046c-1.057,3.245 -3.402,4.918 -6.617,5.828c-4.042,1.144 -8.018,2.528 -12,3.874c-2.941,0.993 -5.847,1.849 -8.874,-0.31c0.254,3.622 -0.863,6.396 -3.387,8.554c-2.549,2.18 -5.564,2.69 -8.827,2.144c-0.129,3.262 -1.141,5.952 -3.546,7.978c-2.374,2 -5.158,2.666 -8.198,2.262c-0.922,7.458 -3.442,9.788 -11.307,10.59c-0.349,1.228 -0.554,2.498 -1.058,3.635c-1.99,4.491 -7.256,6.266 -11.823,4.02c-1.987,-0.976 -3.924,-2.052 -5.866,-3.074c-3.487,5.443 -10.223,5.913 -14.175,0.367c-2.35,2.018 -5.004,3.001 -8.138,2.345c-3.099,-0.649 -5.191,-2.549 -6.595,-5.382c-3.243,2.474 -6.663,3.101 -10.216,1.253c-3.528,-1.835 -5.01,-4.98 -4.865,-8.817c-0.257,-0.094 -0.35,-0.157 -0.444,-0.158c-6.401,-0.054 -11.557,-7.833 -6.665,-14.598c1.364,-1.884 2.61,-3.852 3.903,-5.771c-1.022,-1.357 -2.019,-2.681 -2.8,-3.718c-1.723,-0.329 -3.24,-0.478 -4.668,-0.915c-4.503,-1.381 -8.941,-2.982 -13.467,-4.278c-3.211,-0.92 -5.566,-2.578 -6.617,-5.829l0,-3.046c0.105,-0.227 0.236,-0.445 0.312,-0.681c4.472,-13.756 8.949,-27.51 13.399,-41.273c0.789,-2.439 2.287,-4.135 4.736,-4.951c1.824,-0.607 3.588,-0.298 5.361,0.299c2.803,0.944 5.63,1.818 8.591,2.769l0,-2.031c0.001,-13.5 -0.003,-26.999 0.003,-40.499c0.002,-4.608 2.679,-7.361 7.237,-7.365c17.49,-0.018 34.98,-0.029 52.47,0.047c1.039,0.005 2.334,0.529 3.072,1.255c9.156,9.018 18.223,18.127 27.339,27.185c0.932,0.927 1.357,1.923 1.347,3.236c-0.041,5.48 -0.017,10.962 -0.017,16.443l0,1.75c3.206,-1.041 6.181,-2.027 9.169,-2.974c4.335,-1.375 8.091,0.527 9.505,4.839c2.555,7.786 5.066,15.585 7.612,23.373c2.025,6.197 4.075,12.386 6.114,18.578" style="fill-rule:nonzero;"/><path d="M76.334,49.578c2.292,-1.174 3.564,-3.441 3.292,-5.635c-0.271,-2.176 -1.617,-3.957 -3.292,-4.329l0,9.964Zm-5.015,-16.405l-0,-10.355c-2.082,1.164 -3.15,2.788 -3.239,4.933c-0.096,2.357 1.002,4.13 3.239,5.422m5.1,0.844c0.442,0.168 0.916,0.342 1.385,0.529c4.197,1.678 6.761,5.519 6.738,10.088c-0.023,4.412 -2.675,8.276 -6.869,9.819c-0.986,0.362 -1.451,0.745 -1.433,1.885c0.021,1.294 -1.168,2.209 -2.457,2.178c-1.287,-0.031 -2.342,-0.96 -2.333,-2.305c0.007,-0.996 -0.363,-1.36 -1.263,-1.686c-4.293,-1.553 -7.112,-5.577 -7.031,-9.867c0.028,-1.532 0.98,-2.603 2.355,-2.651c1.316,-0.045 2.416,1.011 2.528,2.51c0.166,2.225 1.104,3.937 3.37,5.188l0,-11.148c-5.752,-2.291 -8.317,-5.694 -8.253,-10.838c0.06,-4.744 2.823,-8.212 8.122,-10.196c0.372,-2.684 1.025,-3.584 2.588,-3.571c1.602,0.013 2.316,1.005 2.471,3.06c1.943,1.34 3.834,2.352 5.35,3.764c1.956,1.823 2.859,4.269 2.848,6.985c-0.006,1.607 -0.874,2.591 -2.301,2.646c-1.457,0.057 -2.439,-0.824 -2.57,-2.393c-0.184,-2.213 -1.07,-3.962 -3.245,-5.153l-0,11.156Z" style="fill-rule:nonzero;"/><path d="M30.728,58.777c1.266,-0.046 2.448,1.052 2.523,2.344c0.079,1.374 -1.011,2.571 -2.381,2.615c-1.322,0.042 -2.437,-0.996 -2.494,-2.323c-0.062,-1.419 0.979,-2.585 2.352,-2.636" style="fill-rule:nonzero;"/><path d="M125.307,63.365c-1.35,-0.008 -2.416,-1.052 -2.441,-2.393c-0.026,-1.372 1.132,-2.552 2.485,-2.531c1.331,0.021 2.528,1.271 2.472,2.581c-0.056,1.303 -1.181,2.351 -2.516,2.343" style="fill-rule:nonzero;"/></g></svg>