<?xml version="1.0" encoding="UTF-8" standalone="no"?><!DOCTYPE svg PUBLIC "-//W3C//DTD SVG 1.1//EN" "http://www.w3.org/Graphics/SVG/1.1/DTD/svg11.dtd"><svg width="100%" height="100%" viewBox="0 0 1043 1025" version="1.1" xmlns="http://www.w3.org/2000/svg" xmlns:xlink="http://www.w3.org/1999/xlink" xml:space="preserve" xmlns:serif="http://www.serif.com/" style="fill-rule:evenodd;clip-rule:evenodd;stroke-linejoin:round;stroke-miterlimit:2;"><g id="Layer-1" serif:id="Layer 1"></g><rect id="Монтажная-область1" serif:id="Монтажная область1" x="0" y="0" width="1042.76" height="1024.46" style="fill:none;"/><path id="path200" d="M325.643,797.655c-4.789,-12.479 0.077,-14.086 42.668,-14.086c55.808,0 63.093,-4.074 74.63,-41.735c3.61,-11.783 6.563,-21.907 6.563,-22.498c-0,-0.592 -46.055,-1.498 -102.344,-2.015c-95.776,-0.878 -103.024,-1.34 -112.954,-7.189c-5.836,-3.438 -13.571,-10.221 -17.188,-15.073c-6.537,-8.77 -6.577,-10.113 -6.577,-225.552c0,-214.021 0.081,-216.837 6.444,-225.359c3.543,-4.747 10.326,-11.529 15.072,-15.073c8.567,-6.396 10.699,-6.443 289.422,-6.443c278.723,-0 280.855,0.047 289.421,6.443c4.747,3.544 11.53,10.326 15.073,15.073c6.363,8.522 6.443,11.338 6.443,225.359c0,214.02 -0.08,216.837 -6.443,225.359c-3.543,4.746 -10.323,11.529 -15.067,15.073c-8.241,6.157 -13.258,6.486 -113.088,7.415c-57.455,0.535 -104.464,1.442 -104.464,2.015c-0,0.573 2.953,10.682 6.563,22.465c11.286,36.843 16.302,39.706 73.124,41.735l43.75,1.563l0,15.625l-194.62,0.804c-171.044,0.708 -194.839,0.234 -196.428,-3.906l0,0Zm265.75,-28.929c-4.088,-8.164 -9.599,-22.93 -12.248,-32.813l-4.816,-17.969l-105.9,0l-4.816,17.969c-2.649,9.883 -8.161,24.649 -12.248,32.813l-7.433,14.843l154.893,0l-7.432,-14.843Zm216.195,-79.862c7.061,-8.21 7.541,-11.143 7.541,-46.094l-0,-37.326l-587.5,0l-0,36.805c-0,39.293 2.76,48.176 16.741,53.873c3.683,1.501 130.217,2.455 281.186,2.119l274.49,-0.609l7.542,-8.768Zm-299.059,-13.106c-4.489,-2.44 -9.975,-8.813 -12.191,-14.162c-5.394,-13.023 1.641,-28.467 15.602,-34.25c8.474,-3.51 11.428,-3.361 20.671,1.047c19.832,9.457 21.658,34.831 3.313,46.017c-11.619,7.085 -16.405,7.321 -27.395,1.348Zm20.662,-23.439c0,-9.105 -12.018,-12.96 -15.129,-4.852c-3.002,7.822 1.256,14.644 8.496,13.611c4.74,-0.676 6.633,-3.176 6.633,-8.759Zm285.938,-65.625l-0,-330.694l-9.615,-8.09l-9.615,-8.091l-550.001,0l-9.134,9.135l-9.135,9.135l-0,328.605l587.5,0Zm-565,-19.375c-2.688,-2.687 -3.75,-23.077 -3.75,-71.973c-0,-60.426 0.587,-68.448 5.139,-70.195c11.405,-4.376 13.611,6.714 13.611,68.409l-0,58.796l514.062,-1.599l1.629,-273.438l-515.691,0l-0,58.778c-0,61.773 -2.199,72.77 -13.67,68.368c-4.671,-1.793 -5.113,-9.2 -4.358,-73.164l0.84,-71.169l546.875,-0l0.812,152.922c0.638,120.266 -0.029,153.455 -3.125,155.421c-2.165,1.374 -124.241,2.52 -271.28,2.547c-203.822,0.036 -268.235,-0.844 -271.094,-3.703l-0,0Z" style="fill-rule:nonzero;"/></svg>