<?xml version="1.0" encoding="UTF-8" standalone="no"?>
<!DOCTYPE svg PUBLIC "-//W3C//DTD SVG 1.1//EN" "http://www.w3.org/Graphics/SVG/1.1/DTD/svg11.dtd">
<svg width="100%" height="100%" viewBox="0 0 156 168" version="1.1" xmlns="http://www.w3.org/2000/svg" xmlns:xlink="http://www.w3.org/1999/xlink" xml:space="preserve" xmlns:serif="http://www.serif.com/" style="fill-rule:evenodd;clip-rule:evenodd;stroke-linejoin:round;stroke-miterlimit:2;">
	<path fill="#00cefd" d="M3.526,1.685c28.002,28.411 55.737,56.551 84.001,85.229c-2.017,1.828 -4.039,3.516 -5.898,5.368c-13.566,13.506 -27.071,27.074 -40.652,40.565c-11.204,11.131 -22.516,22.154 -33.695,33.311c-1.327,1.324 -2.313,1.214 -3.436,0.165c-2.246,-2.098 -3.849,-4.442 -3.846,-7.79c0.05,-49.46 0.037,-98.919 0.027,-148.379c-0,-3.163 1.36,-5.718 3.499,-8.469" style="fill-rule:nonzero;" />
	<path fill="#00f069" d="M91.305,81.982c-26.681,-27.126 -53.367,-54.256 -80.054,-81.387c0.11,-0.198 0.22,-0.397 0.33,-0.595c34.585,19.36 69.171,38.719 103.745,58.073c-8.107,8.069 -16.009,15.935 -24.021,23.909" style="fill-rule:nonzero;" />
	<path fill="#ffd101" d="M118.641,109.376c-7.823,-7.513 -15.264,-14.658 -23.104,-22.187c4.726,-4.587 8.996,-8.694 13.221,-12.846c3.852,-3.788 7.674,-7.607 11.468,-11.454c0.94,-0.953 1.537,-1.253 2.966,-0.432c8.912,5.116 17.939,10.033 26.924,15.023c0.551,0.305 1.088,0.642 1.606,1.002c5.816,4.039 5.302,8.726 0.035,12.318c-4.805,3.277 -9.987,6.019 -15.083,8.853c-6.119,3.402 -12.324,6.653 -18.033,9.723" style="fill-rule:nonzero;" />
	<path fill="#ff3344" d="M90.532,91.499c7.944,7.207 15.058,13.66 22.171,20.113c-0.037,0.404 -0.074,0.808 -0.111,1.211c-30.829,16.877 -61.658,33.754 -91.841,50.276c23.175,-23.778 46.789,-48.008 69.781,-71.6" style="fill-rule:nonzero;" />
</svg>
