<?xml version="1.0" encoding="UTF-8" standalone="no"?><!DOCTYPE svg PUBLIC "-//W3C//DTD SVG 1.1//EN" "http://www.w3.org/Graphics/SVG/1.1/DTD/svg11.dtd"><svg width="100%" height="100%" viewBox="0 0 145 104" version="1.1" xmlns="http://www.w3.org/2000/svg" xmlns:xlink="http://www.w3.org/1999/xlink" xml:space="preserve" xmlns:serif="http://www.serif.com/" style="fill-rule:evenodd;clip-rule:evenodd;stroke-linejoin:round;stroke-miterlimit:2;"><path d="M2.62,-0c-1.464,4.051 -2.938,5.997 -2.56,7.465c1.413,5.467 2.74,11.144 5.358,16.072c7.064,13.302 17.818,23.313 30.268,31.609c21.179,14.113 44.842,21.67 69.532,26.577c2.637,0.523 5.249,1.183 7.859,1.829c0.163,0.041 0.218,0.513 0.476,1.178c-3.659,2.185 -7.547,4.257 -11.144,6.753c-1.909,1.326 -3.73,3.166 -4.788,5.191c-0.677,1.298 -0.523,3.984 0.4,4.926c1.231,1.257 3.552,1.828 5.442,1.919c1.309,0.065 2.731,-1.09 4.014,-1.851c10.05,-5.951 20.202,-11.744 30.076,-17.973c8.467,-5.341 8.5,-9.727 1.261,-16.14c-7.408,-6.564 -14.465,-13.524 -21.758,-20.219c-2.256,-2.071 -4.785,-3.847 -7.503,-6.008c-3.119,8.143 -3.119,8.143 16.435,31.672c-17.605,-0.937 -33.296,-5.468 -48.807,-10.592c-15.523,-5.125 -29.903,-12.564 -43.168,-22.228c-13.61,-9.914 -22.618,-23.543 -31.393,-40.18Z" style="fill:#231f20;fill-rule:nonzero;"/></svg>