<?xml version="1.0" encoding="UTF-8" standalone="no"?><!DOCTYPE svg PUBLIC "-//W3C//DTD SVG 1.1//EN" "http://www.w3.org/Graphics/SVG/1.1/DTD/svg11.dtd"><svg width="100%" height="100%" viewBox="0 0 157 155" version="1.1" xmlns="http://www.w3.org/2000/svg" xmlns:xlink="http://www.w3.org/1999/xlink" xml:space="preserve" xmlns:serif="http://www.serif.com/" style="fill-rule:evenodd;clip-rule:evenodd;stroke-linejoin:round;stroke-miterlimit:2;"><g><path d="M31.159,84.496l-0,-17.061c-3.553,-0 -7,-0.089 -10.439,0.033c-2.051,0.074 -3.617,1.982 -3.65,4.173c-0.042,2.839 -0.043,5.679 -0.001,8.518c0.035,2.347 1.702,4.218 4.058,4.306c3.291,0.124 6.589,0.031 10.032,0.031m31.446,-21.809c6.951,0 13.75,0.002 20.547,-0.002c0.812,-0 1.629,0.016 2.435,-0.068c2.152,-0.223 3.779,-1.98 3.823,-4.214c0.055,-2.838 0.052,-5.678 -0,-8.516c-0.039,-2.137 -1.416,-3.942 -3.528,-4.124c-2.652,-0.23 -5.338,-0.056 -8.019,-0.056c-0,0.328 -0.043,0.635 0.006,0.926c1.291,7.627 -4.115,14.07 -11.837,14.096c-1.144,0.004 -2.288,0 -3.427,0l-0,1.958Zm30.462,4.825l-30.407,-0l-0,16.998c3.201,-0 6.295,-0.036 9.388,0.022c0.92,0.017 1.468,-0.28 1.985,-1.034c2.512,-3.668 5.463,-6.978 9.075,-9.568c3.269,-2.344 6.761,-4.375 9.959,-6.418m-61.698,21.774c-0.456,-0.113 -0.6,-0.179 -0.743,-0.18c-7.17,-0.007 -14.34,-0.048 -21.51,0.01c-2.742,0.022 -4.478,1.901 -4.53,4.703c-0.044,2.384 -0.016,4.771 -0.008,7.157c0.011,3.597 1.62,5.218 5.196,5.218c18.154,0.004 36.308,0.002 54.462,0.002l1.717,0c0.462,-6.051 2.049,-11.641 4.643,-17.104l-8.046,0c0,1.713 0.019,3.183 -0.004,4.653c-0.069,4.468 -3.531,8.059 -7.996,8.13c-5.084,0.08 -10.171,0.076 -15.255,-0.001c-4.197,-0.063 -7.508,-3.17 -7.899,-7.382c-0.159,-1.705 -0.027,-3.438 -0.027,-5.206m34.508,21.76c-0.3,-0.057 -0.446,-0.108 -0.592,-0.108c-16.727,-0.003 -33.455,-0.018 -50.182,0.015c-2.672,0.005 -4.356,1.831 -4.412,4.603c-0.048,2.334 -0.014,4.669 -0.011,7.004c0.005,3.826 1.654,5.487 5.457,5.487c17.388,0.003 34.777,0.001 52.165,0.001l1.64,0c-2.469,-5.522 -3.773,-11.101 -4.065,-17.002m20.871,36.401c-0.226,-0.211 -0.357,-0.37 -0.521,-0.48c-5.398,-3.6 -9.856,-8.109 -13.381,-13.562c-0.291,-0.449 -1.163,-0.737 -1.767,-0.742c-7.167,-0.05 -14.335,-0.032 -21.503,-0.032c-12.81,0 -25.621,-0.005 -38.431,0.004c-2.993,0.002 -4.904,1.6 -5.008,4.362c-0.107,2.838 -0.11,5.686 0.009,8.523c0.107,2.551 1.932,4.209 4.479,4.21c24.045,0.013 48.09,0.005 72.134,0.015c1.736,0 3.001,-0.735 3.989,-2.298m-55.568,-86.718c-1.324,-0 -2.544,0.089 -3.744,-0.025c-1.303,-0.123 -2.622,-0.323 -3.871,-0.699c-1.26,-0.379 -1.871,-1.658 -1.487,-2.783c0.439,-1.287 1.388,-1.757 2.736,-1.643c2.519,0.211 5.04,0.431 7.565,0.508c2.963,0.091 3.594,0.643 3.595,3.553c0.001,11.215 -0.006,22.429 0.006,33.644c0.003,2.523 1.453,4.006 3.928,4.018c4.677,0.022 9.355,0.021 14.032,0c2.343,-0.011 3.785,-1.377 3.985,-3.71c0.044,-0.505 0.019,-1.015 0.019,-1.523c0.001,-11.011 -0.003,-22.023 0.005,-33.035c0.002,-2.185 0.72,-2.894 2.918,-2.922c1.576,-0.02 3.152,0.006 4.728,-0.007c6.528,-0.052 9.798,-5.734 6.53,-11.404c-6.199,-10.758 -12.415,-21.505 -18.652,-32.241c-3.291,-5.665 -9.853,-5.638 -13.15,0.045c-6.23,10.741 -12.424,21.504 -18.664,32.241c-1.011,1.74 -1.433,3.537 -1.183,5.529c0.215,1.713 -0.471,2.738 -1.859,2.937c-1.44,0.207 -2.586,-0.709 -2.705,-2.396c-0.119,-1.7 -0.026,-3.414 -0.026,-5.261c-0.785,0 -1.742,-0.016 -2.698,0.003c-3.135,0.064 -4.887,1.81 -4.927,4.943c-0.029,2.283 -0.011,4.568 -0.005,6.851c0.01,3.69 1.606,5.321 5.262,5.331c5.389,0.015 10.777,0.006 16.166,0.002c0.49,-0.001 0.979,-0.044 1.486,-0.068c0.041,-0.409 0.084,-0.656 0.086,-0.904c0.002,-0.25 -0.037,-0.502 -0.076,-0.984m-31.18,30.783c0.284,-0.63 0.54,-1.274 0.858,-1.886c1.687,-3.244 4.327,-5.023 8.027,-5.11c1.467,-0.034 2.935,-0.006 4.284,-0.006c-1.242,-5.724 -1.228,-11.358 -0.03,-17.061c-3.194,-0.132 -6.158,-1.167 -7.898,-4.135c-0.835,-1.426 -1.369,-3.179 -1.506,-4.828c-0.24,-2.874 -0.089,-5.782 -0.062,-8.676c0.045,-4.85 3.98,-8.785 8.83,-8.851c1.475,-0.02 2.956,-0.086 4.423,0.021c1.166,0.085 1.781,-0.319 2.368,-1.344c5.721,-9.986 11.479,-19.95 17.283,-29.888c3.798,-6.504 11.937,-8.149 17.68,-3.512c1.342,1.085 2.451,2.585 3.333,4.089c5.724,9.753 11.37,19.55 16.993,29.36c0.555,0.967 1.151,1.331 2.264,1.297c2.744,-0.084 5.492,-0.045 8.238,-0.023c4.918,0.04 8.805,3.817 8.919,8.731c0.069,2.943 0.086,5.891 -0.019,8.832c-0.047,1.337 -0.447,2.661 -0.714,4.141c2.432,0.034 4.752,0.734 6.72,2.459c0.31,0.27 1.064,0.161 1.577,0.056c12.342,-2.515 23.801,-0.367 34.374,6.458c0.541,0.349 1.274,0.801 1.385,1.318c0.17,0.796 0.175,1.979 -0.298,2.466c-0.534,0.549 -1.673,0.641 -2.556,0.668c-0.466,0.015 -0.955,-0.521 -1.424,-0.823c-24.205,-15.588 -56.751,-1.507 -61.904,26.784c-4.017,22.052 10.842,43.292 32.944,47.091c22.109,3.8 43.292,-10.955 46.923,-32.836c2.137,-12.882 -1.249,-24.285 -9.81,-34.174c-0.578,-0.668 -1.086,-1.671 -1.056,-2.497c0.022,-0.638 0.863,-1.647 1.478,-1.763c0.782,-0.147 1.967,0.184 2.521,0.752c3.609,3.706 6.376,8.004 8.425,12.752c1.757,4.069 2.939,8.294 3.389,12.714c0.029,0.282 0.191,0.552 0.291,0.827l0,8.53c-0.302,1.636 -0.589,3.276 -0.907,4.909c-4.841,24.842 -30.553,41.077 -55.072,34.707c-3.211,-0.834 -6.316,-2.076 -9.552,-3.156c-2.019,3.383 -5.245,4.574 -9.193,4.567c-23.034,-0.038 -46.067,-0.018 -69.1,-0.019c-0.61,0 -1.221,0.018 -1.83,-0.011c-4.567,-0.213 -7.893,-2.874 -8.889,-7.137c-0.136,-0.584 -0.166,-1.204 -0.171,-1.808c-0.02,-2.131 0.115,-4.271 -0.033,-6.393c-0.338,-4.832 1.252,-8.539 5.649,-10.488c-1.664,-6.018 -1.377,-11.873 -0.262,-17.866c-4.68,-2.236 -4.892,-2.449 -6.89,-7.053l0,-12.185Z" style="fill-rule:nonzero;"/><path d="M111.065,135.884c14.625,0.015 26.568,-11.868 26.602,-26.471c0.035,-14.713 -11.844,-26.695 -26.509,-26.737c-14.679,-0.041 -26.659,11.891 -26.672,26.567c-0.014,14.719 11.864,26.625 26.579,26.641m31.298,-26.454c-0.207,17.588 -14.376,31.326 -32.078,31.099c-16.729,-0.214 -30.777,-14.68 -30.522,-31.45c0.276,-18.193 15.439,-31.701 32.628,-30.988c16.06,0.667 29.959,13.887 29.972,31.339" style="fill-rule:nonzero;"/><path d="M84.41,16.315c1.248,0.091 2,-0.519 2.389,-1.665c0.681,-2.004 1.385,-4.001 2.058,-6.008c0.735,-2.193 0.21,-3.109 -2.098,-3.726c-2.302,-0.617 -3.242,-0.069 -3.703,2.197c-0.411,2.025 -0.797,4.055 -1.188,6.085c-0.348,1.804 0.658,3.033 2.542,3.117m-7.22,-3.461c0.474,-2.225 0.946,-5.392 1.853,-8.429c0.946,-3.168 4.166,-4.854 7.476,-4.331c4.452,0.704 6.803,2.788 7.325,6.491c0.014,0.101 0.056,0.206 0.039,0.301c-0.75,4.298 -1.72,8.582 -4.456,12.075c-1.804,2.303 -5.132,2.603 -8.129,1.313c-2.642,-1.136 -4.19,-3.575 -4.108,-7.42" style="fill-rule:nonzero;"/><path d="M110.007,18.526c-0.317,0.215 -1.021,0.532 -1.506,1.052c-1.453,1.559 -2.831,3.19 -4.221,4.807c-1.182,1.375 -1.193,2.454 -0.074,3.605c1.156,1.189 2.347,1.209 3.752,0.012c1.545,-1.319 3.06,-2.673 4.594,-4.005c0.84,-0.729 1.539,-1.505 1.112,-2.742c-0.421,-1.223 -2.179,-2.704 -3.657,-2.729m8.415,3.027c-0.014,2.418 -0.785,4.083 -2.242,5.4c-1.882,1.701 -3.78,3.387 -5.735,5.001c-2.878,2.375 -6.648,2.132 -9.365,-0.525c-2.817,-2.754 -3.206,-6.495 -0.85,-9.441c1.645,-2.058 3.388,-4.046 5.199,-5.961c2.645,-2.796 6.684,-2.906 9.574,-0.356c1.907,1.683 3.528,3.531 3.419,5.882" style="fill-rule:nonzero;"/><path d="M119.009,50.4c2.051,-0.426 4.696,-0.869 7.276,-1.554c1.467,-0.39 1.691,-1.645 1,-3.87c-0.466,-1.503 -1.474,-2.254 -2.808,-1.844c-2.412,0.742 -4.8,1.57 -7.16,2.465c-1.214,0.46 -1.58,1.513 -1.281,2.745c0.299,1.233 0.938,2.132 2.973,2.058m-7.677,-3.539c0.155,-2.366 1.555,-4.489 4.247,-5.566c2.487,-0.996 5.043,-1.837 7.609,-2.615c3.063,-0.929 6.374,0.38 7.811,3.192c1.371,2.682 2.109,5.515 0.449,8.399c-0.926,1.607 -2.288,2.737 -4.109,3.15c-2.517,0.57 -5.046,1.121 -7.595,1.511c-4.848,0.741 -8.578,-2.643 -8.412,-8.071" style="fill-rule:nonzero;"/><path d="M108.43,96.413c-2.621,0.704 -4.135,2.387 -4.066,4.378c0.057,1.664 1.548,2.932 4.066,3.406l-0,-7.784Zm4.869,14.766l-0,10.712c3.48,-0.878 5.702,-3.329 5.557,-6.037c-0.126,-2.365 -2.231,-4.134 -5.557,-4.675m-0.136,-20.102c2.176,0.829 4.152,1.449 6.005,2.329c1.68,0.797 2.107,2.216 1.335,3.47c-0.749,1.219 -1.993,1.362 -3.6,0.563c-1.116,-0.556 -2.312,-0.953 -3.71,-1.517c0,3.371 -0.028,6.451 0.04,9.528c0.007,0.336 0.506,0.8 0.882,0.96c0.927,0.396 1.941,0.587 2.874,0.972c3.513,1.45 6.061,3.832 6.492,7.756c0.417,3.798 -1.262,6.864 -4.286,9.042c-1.444,1.04 -3.209,1.7 -4.914,2.286c-0.856,0.294 -1.144,0.595 -1.108,1.441c0.027,0.647 -0.001,1.334 -0.192,1.944c-0.344,1.095 -1.2,1.641 -2.342,1.532c-1.131,-0.106 -1.879,-0.764 -2.039,-1.917c-0.11,-0.795 -0.107,-1.608 -0.132,-2.036c-2.795,-0.93 -5.445,-1.694 -7.997,-2.701c-1.778,-0.702 -2.271,-2.027 -1.599,-3.339c0.687,-1.34 1.893,-1.52 3.679,-0.801c1.845,0.743 3.765,1.302 5.958,2.045l-0,-6.386c-0,-1.827 -0.053,-3.656 0.021,-5.48c0.04,-0.971 -0.283,-1.463 -1.214,-1.765c-0.958,-0.311 -1.852,-0.817 -2.774,-1.237c-6.611,-3.009 -6.002,-10.946 -0.735,-14.383c1.003,-0.654 2.151,-1.226 3.309,-1.465c1.184,-0.245 1.534,-0.756 1.401,-1.838c-0.031,-0.247 0.004,-0.508 0.038,-0.758c0.174,-1.27 0.856,-2.033 2.186,-2.094c1.267,-0.058 2.236,0.739 2.408,2.046c0.084,0.647 0.014,1.315 0.014,1.803" style="fill-rule:nonzero;"/></g></svg>