<?xml version="1.0" encoding="UTF-8" standalone="no"?><!DOCTYPE svg PUBLIC "-//W3C//DTD SVG 1.1//EN" "http://www.w3.org/Graphics/SVG/1.1/DTD/svg11.dtd"><svg width="100%" height="100%" viewBox="0 0 1043 1025" version="1.1" xmlns="http://www.w3.org/2000/svg" xmlns:xlink="http://www.w3.org/1999/xlink" xml:space="preserve" xmlns:serif="http://www.serif.com/" style="fill-rule:evenodd;clip-rule:evenodd;stroke-linejoin:round;stroke-miterlimit:2;"><g id="Layer-1" serif:id="Layer 1"></g><rect id="Монтажная-область1" serif:id="Монтажная область1" x="0" y="0" width="1042.76" height="1024.46" style="fill:none;"/><path id="path280" d="M486.554,768.881c-22.828,-5.744 -47.434,-19.882 -65.961,-37.899l-18.672,-18.158l-95.493,-0.825c-117.52,-1.016 -113.918,1.701 -62.441,-47.099l34.931,-33.115l-34.773,-36.794c-19.125,-20.237 -34.774,-38.304 -34.774,-40.15c0,-5.04 6.818,-10.855 12.728,-10.855c3.942,-0 5.597,-3.65 6.73,-14.844c3.042,-30.046 7.825,-35.986 43.041,-53.453l31.823,-15.784l7.183,7.751c3.951,4.263 8.915,11.931 11.031,17.04c2.116,5.109 4.764,9.29 5.883,9.29c1.12,-0 4.816,-5.24 8.215,-11.643c3.398,-6.404 8.667,-14.165 11.708,-17.248c5.311,-5.384 6.342,-5.172 26.252,5.393c11.398,6.049 21.761,10.998 23.03,10.998c1.268,-0 3.286,-5.225 4.484,-11.611c2.847,-15.175 10.126,-29.014 15.261,-29.014c2.245,-0 19.276,-7.617 37.847,-16.926c18.57,-9.309 35.33,-16.292 37.243,-15.517c1.913,0.775 8.998,11.203 15.742,23.175c6.745,11.972 13.073,21.751 14.063,21.731c0.99,-0.024 6.368,-8.357 11.953,-18.525c16.96,-30.88 14.969,-30.404 51.662,-12.34c17.564,8.646 35.45,17.432 39.747,19.523c5.312,2.585 9.73,9.264 13.804,20.872c3.296,9.388 6.316,17.511 6.711,18.051c0.396,0.54 10.628,-4.008 22.74,-10.108c24.939,-12.559 26.341,-12.154 38.161,11.015c3.416,6.696 6.77,12.174 7.455,12.174c0.684,-0 4.403,-5.274 8.264,-11.719c14.451,-24.123 12.107,-23.768 47.296,-7.155c35.366,16.697 41.008,23.288 44.767,52.295c1.696,13.089 3.338,16.418 8.477,17.187c3.506,0.524 7.906,3.398 9.778,6.385c2.853,4.551 -0.136,9.104 -18.463,28.125c-12.027,12.482 -28.14,29.392 -35.806,37.578l-13.94,14.884l35.198,35.298c25.944,26.018 34.663,36.687 33.168,40.584c-1.844,4.806 -10.68,5.288 -97.075,5.288l-95.046,-0l-16.917,16.916c-10.505,10.506 -25.876,21.345 -40.557,28.601c-21.652,10.701 -26.206,11.765 -54.11,12.65c-16.757,0.532 -35.814,-0.378 -42.348,-2.022Zm69.759,-20.517c76.205,-22.631 113.064,-113.045 73.528,-180.363c-10.297,-17.533 -34.362,-40.553 -52.191,-49.925c-60.793,-31.959 -138.989,-4.848 -168.613,58.458c-15.953,34.089 -15.548,76.296 1.048,109.302c8.207,16.32 31.921,41.242 48.479,50.945c27.68,16.222 66.598,20.834 97.748,11.583l0.001,0Zm-92.798,-37.481c-1.051,-2.738 -0.316,-16.248 1.632,-30.021l3.541,-25.044l-18.721,-20.431c-10.296,-11.236 -18.72,-22.164 -18.72,-24.283c-0,-6.724 7.16,-9.843 32.116,-13.992l24.304,-4.04l13.318,-23.762c17.886,-31.913 22.633,-31.951 40.583,-0.324l13.302,23.437l26.21,4.817c36.438,6.695 37.555,9.699 13.268,35.663c-10.643,11.377 -19.352,22.826 -19.352,25.442c0,2.616 1.541,14.685 3.424,26.82c2.952,19.028 2.741,22.745 -1.533,27.02c-4.525,4.525 -7.122,3.9 -29.847,-7.18l-24.891,-12.135l-24.496,11.495c-27.451,12.882 -31.406,13.637 -34.138,6.518l0,-0Zm40.519,-31.326l16.676,-8.179l17.968,8.5c9.882,4.675 18.63,7.838 19.439,7.029c0.809,-0.809 0.19,-9.637 -1.375,-19.619l-2.846,-18.148l13.675,-14.62c7.522,-8.041 13.676,-15.443 13.676,-16.448c-0,-1.005 -6.68,-2.809 -14.844,-4.008c-23.317,-3.424 -27.028,-5.849 -34.997,-22.862c-4.113,-8.781 -8.62,-15.966 -10.016,-15.966c-1.396,-0 -6.076,6.981 -10.399,15.513c-9.113,17.984 -12.86,20.464 -35.543,23.528l-16.737,2.261l14.786,15.012l14.786,15.012l-2.204,20.587c-1.213,11.323 -1.421,20.587 -0.463,20.587c0.958,-0 9.246,-3.681 18.418,-8.179l0,0Zm-114.897,7.398c-10.295,-32.706 -11.361,-39.786 -9.998,-66.407c0.807,-15.754 3.648,-33.235 6.461,-39.743c2.762,-6.39 5.022,-12.367 5.022,-13.281c-0,-0.915 -33.214,-1.663 -73.808,-1.663l-73.806,-0l28.494,29.806c15.672,16.393 28.495,32.187 28.495,35.097c-0,2.911 -12.981,18.326 -28.845,34.257l-28.845,28.965l149.043,-0l-2.213,-7.031Zm381.953,-21.481c-16.758,-15.588 -30.468,-30.7 -30.468,-33.582c-0,-2.882 11.347,-16.457 25.216,-30.167c39.532,-39.077 43.328,-35.864 -42.374,-35.864l-73.628,-0l4.465,8.633c12.813,24.78 13.876,68.514 2.483,102.26l-5.817,17.232l150.592,-0.166l-30.469,-28.341l0,-0.005Zm-377.343,-121.488l-0,-42.448l-17.917,-8.787c-16.357,-8.023 -18.194,-8.33 -21.094,-3.534c-14.11,23.333 -22.702,34.456 -26.614,34.456c-3.926,0 -12.407,-10.992 -26.748,-34.667c-3.113,-5.14 -4.043,-5.065 -15.625,1.266c-6.773,3.702 -16.25,8.152 -21.06,9.89c-9.76,3.526 -17.818,19.06 -17.818,34.348l0,9.476l146.876,-0Zm399.78,-13.281c-0.339,-20.515 -3.112,-24.088 -27.429,-35.352l-22.656,-10.494l-8.441,14.323c-18.874,32.022 -23.102,32.441 -38.825,3.841c-5.577,-10.145 -10.968,-18.087 -11.98,-17.648c-1.012,0.439 -9.8,4.314 -19.529,8.611l-17.689,7.812l-0.118,42.188l146.875,-0l-0.22,-13.281l0.012,-0Zm-330.443,-33.206c8.057,-3.437 22.7,-7.738 32.54,-9.557c9.839,-1.819 18.229,-3.664 18.643,-4.1c0.414,-0.436 -5.415,-11.341 -12.953,-24.231c-7.539,-12.891 -14.117,-24.595 -14.619,-26.01c-0.502,-1.415 -12.758,3.155 -27.234,10.156c-14.477,7.001 -28.114,12.729 -30.306,12.729c-5.079,-0 -12.558,26.538 -15.343,54.445l-2.159,21.632l18.391,-14.407c10.114,-7.924 24.982,-17.22 33.04,-20.657Zm164.1,8.205c-3.023,-41.778 -4.286,-43.729 -38.964,-60.156c-22.846,-10.823 -30.584,-13.25 -32.585,-10.221c-1.443,2.184 -7.036,11.706 -12.429,21.159c-5.392,9.453 -11.766,19.486 -14.164,22.294c-3.936,4.611 -2.447,5.441 15.329,8.544c23.749,4.144 60.013,21.411 72.616,34.575c5.049,5.273 9.828,9.587 10.621,9.587c0.792,-0 0.602,-11.602 -0.424,-25.782l0,0Zm-311.562,-51.417c-8.259,-3.005 -22.249,-17.738 -29.071,-30.614c-9.35,-17.648 -9.582,-53.69 -0.424,-65.973c12.232,-16.404 22.226,-21.527 41.995,-21.527c20.568,0 30.795,5.607 43.272,23.725c6.4,9.294 7.149,13.338 5.885,31.755c-3.053,44.456 -31.683,73.54 -61.657,62.634l-0,-0Zm28.07,-25.391c9.024,-9.024 15.631,-26.655 15.662,-41.794c0.024,-12.367 -5.576,-22.631 -15.575,-28.537c-13.927,-8.227 -24.283,-6.579 -36.705,5.843c-10.501,10.501 -10.954,11.834 -9.162,26.96c2.322,19.611 11.126,37.294 21.116,42.415c11.058,5.669 14.862,4.915 24.664,-4.887Zm354.742,23.37c-12.313,-5.649 -18.64,-13.081 -26.752,-31.419c-14.704,-33.24 -6.657,-66.928 19.13,-80.083c35.691,-18.208 78.459,10.776 73.445,49.774c-3.27,25.434 -8.38,38.461 -19.953,50.868c-13.212,14.164 -30.004,18.14 -45.87,10.86Zm27.062,-17.923c7.379,-3.949 16.75,-23.972 19.659,-42.006c5.425,-33.624 -38.242,-52.601 -56.592,-24.595c-10.511,16.042 -3.295,50.371 13.339,63.455c9.374,7.374 14.434,8.049 23.594,3.146Zm-225.765,-33.877c-23.493,-12.793 -40.359,-47.209 -40.359,-82.353c-0,-27.108 11.742,-46.152 35.187,-57.068c9.006,-4.193 19.891,-7.629 24.187,-7.636c25.514,-0.047 52.034,18.391 61.276,42.591c10.67,27.937 -4.684,81.623 -28.549,99.826c-14.696,11.209 -36.146,13.133 -51.742,4.64Zm44.259,-25.109c9.638,-10.131 12.745,-16.734 17.11,-36.354c5.132,-23.068 5.11,-24.513 -0.583,-38.251c-7.191,-17.351 -21.183,-26.558 -40.361,-26.558c-15.619,0 -27.265,6.686 -36.132,20.743c-13.41,21.257 -0.773,70.738 21.904,85.763c15.554,10.307 24.349,9.072 38.063,-5.343l-0.001,-0Z" style="fill-rule:nonzero;"/></svg>