<?xml version="1.0" standalone="no"?>
<!DOCTYPE svg PUBLIC "-//W3C//DTD SVG 20010904//EN"
 "http://www.w3.org/TR/2001/REC-SVG-20010904/DTD/svg10.dtd">
<svg version="1.0" xmlns="http://www.w3.org/2000/svg"
 width="684.000000pt" height="684.000000pt" viewBox="0 0 684.000000 684.000000"
 preserveAspectRatio="xMidYMid meet">

<g transform="translate(0.000000,684.000000) scale(0.100000,-0.100000)"
fill="#000000" stroke="none">
<path d="M575 6835 c-5 -1 -30 -8 -55 -15 -264 -72 -433 -239 -499 -494 -21
-79 -21 -89 -21 -2290 0 -2169 1 -2212 20 -2285 57 -212 169 -350 370 -452
109 -55 153 -61 505 -68 l320 -6 6 -315 c7 -346 14 -404 70 -514 77 -152 170
-247 303 -310 176 -84 -54 -77 2461 -74 l2240 3 79 28 c112 41 187 88 266 169
79 79 137 183 170 305 20 72 20 109 20 2293 0 2190 0 2221 -20 2293 -26 95
-77 200 -128 263 -48 61 -153 142 -238 184 -113 55 -168 63 -514 69 l-315 6
-6 320 c-7 346 -12 392 -65 500 -40 84 -126 197 -187 246 -63 51 -174 104
-270 129 -70 19 -139 20 -2287 19 -1218 0 -2219 -2 -2225 -4z m4526 -296 c99
-47 176 -133 216 -244 17 -48 18 -150 18 -2255 0 -2152 0 -2206 -19 -2262 -42
-121 -133 -212 -254 -254 -56 -19 -110 -19 -2262 -19 -2105 0 -2207 1 -2255
18 -111 40 -197 117 -244 216 l-26 56 0 2240 0 2240 31 65 c50 104 148 188
253 216 36 10 528 12 2266 11 l2220 -2 56 -26z m1198 -1220 c107 -40 184 -110
230 -209 l26 -55 0 -2245 0 -2245 -27 -57 c-37 -80 -107 -152 -187 -191 l-66
-32 -2245 0 -2245 0 -55 26 c-99 46 -170 124 -210 231 -19 52 -20 74 -18 369
l3 314 1765 5 c1841 6 1785 5 1900 48 167 62 326 220 393 392 48 124 47 85 47
1929 0 950 3 1731 7 1734 3 4 146 7 317 7 289 0 315 -1 365 -21z"/>
<path d="M604 6355 c-33 -17 -74 -80 -74 -114 0 -30 22 -71 55 -101 l27 -25
265 0 265 0 34 39 c28 33 34 47 34 86 0 39 -6 53 -34 86 l-34 39 -253 3 c-213
2 -259 0 -285 -13z"/>
<path d="M1400 6353 c-46 -32 -59 -56 -60 -107 0 -92 66 -148 156 -132 110 21
138 177 42 236 -41 25 -105 26 -138 3z"/>
<path d="M2009 5256 c-67 -19 -140 -61 -193 -112 -59 -57 -88 -103 -115 -184
l-22 -65 3 -880 3 -880 32 -65 c60 -122 143 -195 271 -239 87 -30 204 -29 292
3 76 27 45 10 581 321 104 61 263 153 354 205 91 52 217 126 281 163 64 37
135 78 158 90 135 74 216 164 259 291 24 69 22 197 -2 267 -55 156 -121 218
-386 364 -27 15 -110 63 -182 106 -73 44 -135 79 -138 79 -2 0 -80 44 -172 98
-156 92 -313 183 -608 353 -66 38 -136 74 -155 80 -55 17 -209 20 -261 5z
m234 -290 c150 -82 252 -141 612 -351 77 -46 160 -94 185 -107 25 -14 111 -63
191 -111 81 -47 164 -95 185 -106 161 -88 218 -135 234 -189 23 -83 5 -148
-57 -208 -25 -24 -49 -44 -55 -44 -5 0 -47 -22 -94 -50 -47 -27 -87 -50 -90
-50 -2 0 -23 -12 -47 -27 -23 -15 -51 -33 -62 -39 -11 -6 -78 -44 -150 -84
-71 -40 -136 -77 -144 -83 -15 -13 -15 -12 -147 -87 -119 -67 -137 -78 -192
-113 -24 -16 -51 -31 -60 -34 -9 -4 -33 -16 -52 -28 -19 -12 -66 -39 -105 -60
-38 -20 -77 -43 -85 -50 -35 -31 -141 -75 -180 -75 -46 0 -104 26 -137 62 -55
58 -53 31 -53 910 0 767 1 815 19 853 49 106 166 136 284 71z"/>
<path d="M1844 726 c-131 -59 -93 -246 50 -246 78 0 136 56 136 131 0 34 -31
89 -61 108 -30 18 -92 22 -125 7z"/>
<path d="M2230 727 c-52 -18 -83 -70 -77 -131 4 -41 11 -55 39 -82 33 -30 42
-32 129 -39 52 -3 947 -5 1989 -3 1826 3 1896 4 1922 22 68 46 86 125 42 184
-51 67 102 62 -2051 61 -1490 0 -1966 -3 -1993 -12z"/>
</g>
</svg>
