<?xml version="1.0" encoding="UTF-8" standalone="no"?><!DOCTYPE svg PUBLIC "-//W3C//DTD SVG 1.1//EN" "http://www.w3.org/Graphics/SVG/1.1/DTD/svg11.dtd"><svg width="100%" height="100%" viewBox="0 0 1600 1600" version="1.1" xmlns="http://www.w3.org/2000/svg" xmlns:xlink="http://www.w3.org/1999/xlink" xml:space="preserve" xmlns:serif="http://www.serif.com/" style="fill-rule:evenodd;clip-rule:evenodd;stroke-linejoin:round;stroke-miterlimit:2;"><path d="M320,-0c-176.613,-0 -320,143.387 -320,320l0,960c0,176.613 143.387,320 320,320l960,-0c176.613,-0 320,-143.387 320,-320l-0,-960c-0,-176.613 -143.387,-320 -320,-320l-960,-0Z" style="fill:url(#_Linear1);"/><path d="M483.083,820.527l-0,-66.847l11.404,-0c3.801,-0 8.909,-0.413 15.324,-1.238c6.415,-0.826 13.186,-2.614 20.314,-5.365c9.978,-3.851 19.244,-10.316 27.797,-19.394c8.553,-9.078 12.829,-22.695 12.829,-40.851c0,-3.301 -0.237,-7.014 -0.712,-11.141c-0.476,-4.126 -1.188,-8.115 -2.139,-11.966c-2.851,-10.454 -8.553,-20.082 -17.106,-28.885c-8.553,-8.803 -22.57,-13.204 -42.052,-13.204c-4.277,-0 -8.553,0.137 -12.83,0.412c-4.276,0.276 -8.553,0.688 -12.829,1.238c-8.553,0.551 -17.106,1.788 -25.659,3.714c-8.553,1.926 -16.393,4.264 -23.521,7.015l0,-104.81c6.652,-2.201 13.186,-4.264 19.601,-6.189c6.414,-1.926 12.71,-3.439 18.888,-4.539c8.553,-1.651 17.106,-2.889 25.659,-3.714c8.553,-0.825 17.343,-1.238 26.372,-1.238c45.616,0 80.422,9.491 104.418,28.472c23.996,18.981 40.27,39.751 48.823,62.308c3.326,8.253 5.702,16.368 7.128,24.346c1.425,7.977 2.138,15.542 2.138,22.695c-0,26.959 -7.009,52.129 -21.026,75.512c-14.018,23.383 -32.43,39.201 -55.239,47.453c24.234,7.153 44.429,21.87 60.584,44.153c16.156,22.282 24.234,52.129 24.234,89.542c-0,2.751 -0.119,5.639 -0.356,8.665c-0.238,3.026 -0.357,5.915 -0.357,8.665c-4.276,40.164 -21.858,76.888 -52.743,110.174c-30.886,33.286 -73.651,49.929 -128.296,49.929c-7.602,0 -15.562,-0.275 -23.877,-0.825c-8.315,-0.55 -16.512,-1.65 -24.59,-3.301c-10.454,-1.1 -20.788,-2.751 -31.005,-4.952c-10.216,-2.2 -20.075,-4.951 -29.579,-8.252l14.968,-106.461c19.482,4.952 35.519,8.941 48.111,11.967c12.592,3.026 24.115,4.539 34.568,4.539c24.709,-0 43.716,-7.84 57.02,-23.52c13.305,-15.681 19.957,-33.699 19.957,-54.056c0,-25.858 -7.484,-45.94 -22.451,-60.245c-14.968,-14.304 -33.618,-21.457 -55.951,-21.457c-2.851,0 -5.702,0.138 -8.553,0.413c-2.851,0.275 -5.94,0.688 -9.266,1.238Z" style="fill:#fff;fill-rule:nonzero;"/><path d="M791.557,1085.44l0,-571.914l155.813,0c11.44,0 27.913,1.145 49.421,3.435c21.507,2.29 43.929,8.873 67.267,19.751c32.947,14.884 63.034,42.078 90.261,81.579c27.227,39.502 40.841,99.899 40.841,181.192c-0,14.312 -0.801,29.197 -2.403,44.654c-1.601,15.457 -4.461,31.201 -8.58,47.23c-11.897,48.662 -35.921,93.173 -72.071,133.533c-36.151,40.36 -91.063,60.54 -164.736,60.54l-155.813,0Zm111.197,-459.42l-0,346.927l54.225,-0c6.864,-0 14.987,-0.573 24.368,-1.718c9.38,-1.145 19.104,-3.721 29.172,-7.728c18.304,-8.015 35.006,-23.902 50.107,-47.66c15.1,-23.758 22.651,-62.258 22.651,-115.499c-0,-56.104 -7.894,-96.035 -23.681,-119.793c-15.787,-23.758 -33.29,-39.358 -52.509,-46.801c-8.695,-3.435 -17.504,-5.581 -26.427,-6.44c-8.923,-0.859 -16.817,-1.288 -23.681,-1.288l-54.225,-0Z" style="fill:#fff;fill-rule:nonzero;"/><path d="M794.465,229.056l473.11,-0c0.516,-0 1.03,-0.014 1.545,-0.041c-0,-0 49.36,-2.908 78.902,33.725c13.313,16.508 21.956,40.853 21.956,75.989l0,408.243c0,16.056 13.036,29.091 29.091,29.091c16.056,-0 29.091,-13.035 29.091,-29.091l0,-408.243c0,-52.321 -15.024,-87.929 -34.848,-112.512c-44.063,-54.64 -115.111,-55.533 -125.891,-55.342c0.065,-0.001 -472.956,-0.001 -472.956,-0.001c-16.055,-0 -29.09,13.035 -29.09,29.091c-0,16.055 13.035,29.091 29.09,29.091Z" style="fill:#fff;"/><path d="M806.783,1367.01l-473.11,0c-0.515,0 -1.03,0.014 -1.544,0.041c-0,0 -49.361,2.908 -78.902,-33.725c-13.313,-16.508 -21.957,-40.853 -21.957,-75.989l0,-408.243c0,-16.056 -13.035,-29.091 -29.091,-29.091c-16.055,-0 -29.091,13.035 -29.091,29.091l0,408.243c0,52.321 15.024,87.929 34.849,112.512c44.063,54.64 115.11,55.533 125.891,55.342c-0.065,0.001 472.955,0.001 472.955,0.001c16.056,0 29.091,-13.035 29.091,-29.091c-0,-16.055 -13.035,-29.091 -29.091,-29.091Z" style="fill:#fff;"/><defs><linearGradient id="_Linear1" x1="0" y1="0" x2="1" y2="0" gradientUnits="userSpaceOnUse" gradientTransform="matrix(9.79717e-14,-1600,1600,9.79717e-14,800,1600)"><stop offset="0" style="stop-color:#00efd1;stop-opacity:1"/><stop offset="1" style="stop-color:#00acea;stop-opacity:1"/></linearGradient></defs></svg>